<?xml version="1.0" encoding="UTF-8" standalone="no"?>
<!-- Generator: Adobe Illustrator 22.1.0, SVG Export Plug-In . SVG Version: 6.00 Build 0)  -->

<svg
   xmlns:dc="http://purl.org/dc/elements/1.1/"
   xmlns:cc="http://creativecommons.org/ns#"
   xmlns:rdf="http://www.w3.org/1999/02/22-rdf-syntax-ns#"
   xmlns:svg="http://www.w3.org/2000/svg"
   xmlns="http://www.w3.org/2000/svg"
   xmlns:xlink="http://www.w3.org/1999/xlink"
   xmlns:sodipodi="http://sodipodi.sourceforge.net/DTD/sodipodi-0.dtd"
   xmlns:inkscape="http://www.inkscape.org/namespaces/inkscape"
   version="1.1"
   id="Capa_1"
   x="0px"
   y="0px"
   viewBox="0 0 2242.4081 1232.7"
   xml:space="preserve"
   sodipodi:docname="ScrumInfographic.svg"
   width="2242.4082"
   height="1232.7001"
   inkscape:version="0.92.3 (2405546, 2018-03-11)"><metadata
   id="metadata1098"><rdf:RDF><cc:Work
       rdf:about=""><dc:format>image/svg+xml</dc:format><dc:type
         rdf:resource="http://purl.org/dc/dcmitype/StillImage" /><dc:title></dc:title></cc:Work></rdf:RDF></metadata><defs
   id="defs1096" /><sodipodi:namedview
   pagecolor="#ffffff"
   bordercolor="#666666"
   borderopacity="1"
   objecttolerance="10"
   gridtolerance="10"
   guidetolerance="10"
   inkscape:pageopacity="0"
   inkscape:pageshadow="2"
   inkscape:window-width="1280"
   inkscape:window-height="961"
   id="namedview1094"
   showgrid="false"
   fit-margin-top="0"
   fit-margin-left="0"
   fit-margin-right="0"
   fit-margin-bottom="0"
   inkscape:zoom="0.26952656"
   inkscape:cx="1084.8083"
   inkscape:cy="633.5"
   inkscape:window-x="-4"
   inkscape:window-y="-4"
   inkscape:window-maximized="1"
   inkscape:current-layer="Capa_1" />
<style
   type="text/css"
   id="style555">
	.st0{clip-path:url(#SVGID_2_);fill:#3B34EF;}
	.st1{clip-path:url(#SVGID_2_);fill:#E9D43E;}
	.st2{clip-path:url(#SVGID_2_);fill:#DD4F52;}
	.st3{clip-path:url(#SVGID_2_);fill:#ADACB2;}
	.st4{clip-path:url(#SVGID_4_);}
	.st5{fill:#211915;}
	.st6{font-family:'Apercu-Bold';}
	.st7{font-size:51.7338px;}
	.st8{fill:none;stroke:#E9D43E;stroke-width:0.9898;stroke-miterlimit:10;stroke-dasharray:2.4746,2.4746;}
	.st9{fill:#E9D43E;}
	.st10{fill:none;stroke:#FFFFFF;stroke-width:0.4949;stroke-miterlimit:10;}
	.st11{fill:#DD4F52;}
	.st12{clip-path:url(#SVGID_6_);fill:#3B34EF;}
	.st13{clip-path:url(#SVGID_8_);}
	.st14{fill:#FFFFFF;}
	.st15{clip-path:url(#SVGID_10_);}
	.st16{clip-path:url(#SVGID_12_);}
	.st17{fill:#3B34EF;}
	.st18{clip-path:url(#SVGID_14_);}
	.st19{clip-path:url(#SVGID_14_);fill:none;stroke:#3B34EF;stroke-width:1.4847;stroke-miterlimit:10;}
	.st20{clip-path:url(#SVGID_16_);fill:#ADACB2;}
</style>
<g
   id="g831"
   transform="translate(-332.49179,-818.1)">
	<defs
   id="defs558">
		<rect
   id="SVGID_1_"
   x="291.70001"
   y="818.09998"
   width="2283.2"
   height="1243.4" />
	</defs>
	<clipPath
   id="SVGID_2_">
		<use
   xlink:href="#SVGID_1_"
   style="overflow:visible"
   id="use560"
   x="0"
   y="0"
   width="100%"
   height="100%" />
	</clipPath>
	<path
   class="st0"
   d="m 487.7,932.9 c -12.2,0 -22,-9.8 -22,-21.8 0,-12 9.9,-21.8 22,-21.8 12.2,0 22,9.8 22,21.8 0,12 -9.9,21.8 -22,21.8 m 0,-33.4 c -6.5,0 -11.7,5.2 -11.7,11.6 0,6.4 5.3,11.6 11.7,11.6 6.5,0 11.7,-5.2 11.7,-11.6 0,-6.4 -5.3,-11.6 -11.7,-11.6"
   clip-path="url(#SVGID_2_)"
   id="path563"
   inkscape:connector-curvature="0"
   style="fill:#3b34ef" />
	<path
   class="st0"
   d="m 518.7,977.4 c -2.9,0 -5.2,-2.3 -5.2,-5.1 0,-14.1 -11.6,-25.5 -25.8,-25.5 -14.2,0 -25.8,11.5 -25.8,25.5 0,2.8 -2.3,5.1 -5.2,5.1 -2.9,0 -5.2,-2.3 -5.2,-5.1 0,-19.7 16.2,-35.8 36.2,-35.8 20,0 36.2,16 36.2,35.8 -0.1,2.8 -2.4,5.1 -5.2,5.1"
   clip-path="url(#SVGID_2_)"
   id="path565"
   inkscape:connector-curvature="0"
   style="fill:#3b34ef" />
	<path
   class="st0"
   d="m 1193.3,1081.7 c -12.2,0 -22,-9.8 -22,-21.8 0,-12 9.9,-21.8 22,-21.8 12.2,0 22,9.8 22,21.8 0,12 -9.9,21.8 -22,21.8 m 0,-33.4 c -6.5,0 -11.7,5.2 -11.7,11.6 0,6.4 5.3,11.6 11.7,11.6 6.5,0 11.7,-5.2 11.7,-11.6 0,-6.4 -5.3,-11.6 -11.7,-11.6"
   clip-path="url(#SVGID_2_)"
   id="path567"
   inkscape:connector-curvature="0"
   style="fill:#3b34ef" />
	<path
   class="st0"
   d="m 1224.3,1126.2 c -2.9,0 -5.2,-2.3 -5.2,-5.1 0,-14.1 -11.6,-25.5 -25.8,-25.5 -14.2,0 -25.8,11.5 -25.8,25.5 0,2.8 -2.3,5.1 -5.2,5.1 -2.9,0 -5.2,-2.3 -5.2,-5.1 0,-19.7 16.2,-35.8 36.2,-35.8 19.9,0 36.2,16 36.2,35.8 0,2.8 -2.4,5.1 -5.2,5.1"
   clip-path="url(#SVGID_2_)"
   id="path569"
   inkscape:connector-curvature="0"
   style="fill:#3b34ef" />
	<path
   class="st1"
   d="m 1427.4,1081.7 c -12.2,0 -22,-9.8 -22,-21.8 0,-12 9.9,-21.8 22,-21.8 12.2,0 22,9.8 22,21.8 0,12 -9.9,21.8 -22,21.8 m 0,-33.4 c -6.5,0 -11.7,5.2 -11.7,11.6 0,6.4 5.2,11.6 11.7,11.6 6.5,0 11.7,-5.2 11.7,-11.6 0,-6.4 -5.3,-11.6 -11.7,-11.6"
   clip-path="url(#SVGID_2_)"
   id="path571"
   inkscape:connector-curvature="0"
   style="fill:#e9d43e" />
	<path
   class="st1"
   d="m 1458.4,1126.2 c -2.9,0 -5.2,-2.3 -5.2,-5.1 0,-14.1 -11.6,-25.5 -25.8,-25.5 -14.2,0 -25.8,11.5 -25.8,25.5 0,2.8 -2.3,5.1 -5.2,5.1 -2.9,0 -5.2,-2.3 -5.2,-5.1 0,-19.7 16.2,-35.8 36.2,-35.8 19.9,0 36.2,16 36.2,35.8 -0.1,2.8 -2.4,5.1 -5.2,5.1"
   clip-path="url(#SVGID_2_)"
   id="path573"
   inkscape:connector-curvature="0"
   style="fill:#e9d43e" />
	<path
   class="st2"
   d="m 1274.7,1081.7 c 7.5,0 14.1,-3.7 18.1,-9.4 -2.5,-3.5 -4,-7.8 -4,-12.4 0,-4.6 1.5,-8.9 4,-12.4 -4,-5.7 -10.6,-9.4 -18.1,-9.4 -12.2,0 -22,9.8 -22,21.8 0,12 9.9,21.8 22,21.8 m 0,-33.4 c 6.5,0 11.7,5.2 11.7,11.6 0,6.4 -5.2,11.6 -11.7,11.6 -6.5,0 -11.7,-5.2 -11.7,-11.6 0,-6.4 5.3,-11.6 11.7,-11.6"
   clip-path="url(#SVGID_2_)"
   id="path575"
   inkscape:connector-curvature="0"
   style="fill:#dd4f52" />
	<path
   class="st2"
   d="m 1292.8,1090.2 c -5.3,-3.1 -11.5,-4.8 -18.1,-4.8 -19.9,0 -36.2,16 -36.2,35.8 0,2.8 2.3,5.1 5.2,5.1 2.9,0 5.2,-2.3 5.2,-5.1 0,-14.1 11.6,-25.5 25.8,-25.5 3.3,0 6.4,0.7 9.2,1.8 2.6,-3 5.6,-5.4 8.9,-7.3"
   clip-path="url(#SVGID_2_)"
   id="path577"
   inkscape:connector-curvature="0"
   style="fill:#dd4f52" />
	<path
   class="st2"
   d="m 1292.8,1072.3 c 4,5.7 10.6,9.4 18.1,9.4 7.5,0 14.1,-3.7 18.1,-9.4 -2.5,-3.5 -4,-7.8 -4,-12.4 0,-4.6 1.5,-8.9 4,-12.4 -4,-5.7 -10.6,-9.4 -18.1,-9.4 -7.5,0 -14.1,3.7 -18.1,9.4 2.5,3.5 4,7.8 4,12.4 0,4.6 -1.5,8.9 -4,12.4 m 18.1,-24 c 6.5,0 11.7,5.2 11.7,11.6 0,6.4 -5.3,11.6 -11.7,11.6 -6.5,0 -11.7,-5.2 -11.7,-11.6 0,-6.4 5.2,-11.6 11.7,-11.6"
   clip-path="url(#SVGID_2_)"
   id="path579"
   inkscape:connector-curvature="0"
   style="fill:#dd4f52" />
	<path
   class="st2"
   d="m 1292.8,1072.3 c 2.5,-3.5 4,-7.8 4,-12.4 0,-4.6 -1.5,-8.9 -4,-12.4 -2.5,3.5 -4,7.8 -4,12.4 0,4.6 1.5,8.9 4,12.4"
   clip-path="url(#SVGID_2_)"
   id="path581"
   inkscape:connector-curvature="0"
   style="fill:#dd4f52" />
	<path
   class="st2"
   d="m 1301.7,1097.3 c 2.9,-1.1 6,-1.8 9.2,-1.8 3.3,0 6.4,0.7 9.2,1.8 2.6,-2.8 5.5,-5.2 8.9,-7.1 -5.3,-3.1 -11.5,-4.8 -18.1,-4.8 -6.6,0 -12.8,1.8 -18.1,4.8 3.3,1.9 6.3,4.3 8.9,7.1"
   clip-path="url(#SVGID_2_)"
   id="path583"
   inkscape:connector-curvature="0"
   style="fill:#dd4f52" />
	<path
   class="st2"
   d="m 1292.8,1090.2 c -3.3,1.9 -6.3,4.3 -8.9,7.1 3.3,1.3 6.4,3.2 8.9,5.6 2.5,-2.4 5.5,-4.3 8.9,-5.6 -2.6,-2.8 -5.6,-5.2 -8.9,-7.1"
   clip-path="url(#SVGID_2_)"
   id="path585"
   inkscape:connector-curvature="0"
   style="fill:#dd4f52" />
	<path
   class="st2"
   d="m 1329,1072.3 c 4,5.7 10.6,9.4 18.1,9.4 12.2,0 22,-9.8 22,-21.8 0,-12 -9.9,-21.8 -22,-21.8 -7.5,0 -14.1,3.7 -18.1,9.4 2.5,3.5 4,7.8 4,12.4 -0.1,4.6 -1.5,8.9 -4,12.4 m 18.1,-24 c 6.5,0 11.7,5.2 11.7,11.6 0,6.4 -5.2,11.6 -11.7,11.6 -6.5,0 -11.7,-5.2 -11.7,-11.6 -0.1,-6.4 5.2,-11.6 11.7,-11.6"
   clip-path="url(#SVGID_2_)"
   id="path587"
   inkscape:connector-curvature="0"
   style="fill:#dd4f52" />
	<path
   class="st2"
   d="m 1329,1072.3 c 2.5,-3.5 4,-7.8 4,-12.4 0,-4.6 -1.5,-8.9 -4,-12.4 -2.5,3.5 -4,7.8 -4,12.4 0,4.6 1.5,8.9 4,12.4"
   clip-path="url(#SVGID_2_)"
   id="path589"
   inkscape:connector-curvature="0"
   style="fill:#dd4f52" />
	<path
   class="st2"
   d="m 1347.1,1085.3 c -6.6,0 -12.8,1.8 -18.1,4.8 3.3,1.9 6.3,4.3 8.9,7.1 2.9,-1.1 6,-1.8 9.2,-1.8 14.2,0 25.8,11.5 25.8,25.5 0,2.8 2.3,5.1 5.2,5.1 2.9,0 5.2,-2.3 5.2,-5.1 -0.1,-19.5 -16.3,-35.6 -36.2,-35.6"
   clip-path="url(#SVGID_2_)"
   id="path591"
   inkscape:connector-curvature="0"
   style="fill:#dd4f52" />
	<path
   class="st2"
   d="m 1329,1090.2 c -3.3,1.9 -6.3,4.3 -8.9,7.1 3.3,1.3 6.4,3.2 8.9,5.6 2.5,-2.4 5.5,-4.3 8.9,-5.6 -2.6,-2.8 -5.6,-5.2 -8.9,-7.1"
   clip-path="url(#SVGID_2_)"
   id="path593"
   inkscape:connector-curvature="0"
   style="fill:#dd4f52" />
	<path
   class="st0"
   d="m 1894.6,861.7 c -12.2,0 -22,-9.8 -22,-21.8 0,-12 9.9,-21.8 22,-21.8 12.2,0 22,9.8 22,21.8 0,12 -9.9,21.8 -22,21.8 m 0,-33.4 c -6.5,0 -11.7,5.2 -11.7,11.6 0,6.4 5.2,11.6 11.7,11.6 6.5,0 11.7,-5.2 11.7,-11.6 0,-6.4 -5.3,-11.6 -11.7,-11.6"
   clip-path="url(#SVGID_2_)"
   id="path595"
   inkscape:connector-curvature="0"
   style="fill:#3b34ef" />
	<path
   class="st0"
   d="m 1925.6,906.2 c -2.9,0 -5.2,-2.3 -5.2,-5.1 0,-14.1 -11.6,-25.5 -25.8,-25.5 -14.2,0 -25.8,11.5 -25.8,25.5 0,2.8 -2.3,5.1 -5.2,5.1 -2.9,0 -5.2,-2.3 -5.2,-5.1 0,-19.7 16.2,-35.8 36.2,-35.8 19.9,0 36.2,16 36.2,35.8 0,2.8 -2.4,5.1 -5.2,5.1"
   clip-path="url(#SVGID_2_)"
   id="path597"
   inkscape:connector-curvature="0"
   style="fill:#3b34ef" />
	<path
   class="st3"
   d="m 2237.4,839.1 c 0,0.3 -0.1,0.5 -0.1,0.7 0,0.3 0.1,0.5 0.1,0.7 0,-0.3 0.1,-0.5 0.1,-0.7 0,-0.2 -0.1,-0.4 -0.1,-0.7"
   clip-path="url(#SVGID_2_)"
   id="path599"
   inkscape:connector-curvature="0"
   style="fill:#adacb2" />
	<path
   class="st3"
   d="m 2215.5,861.7 c 6.8,0 12.7,-3.1 16.8,-7.8 -3.1,-3.6 -5,-8.2 -5.2,-13.2 -0.4,6 -5.4,10.8 -11.6,10.8 -6.5,0 -11.7,-5.2 -11.7,-11.6 0,-6.4 5.2,-11.6 11.7,-11.6 6.2,0 11.2,4.8 11.6,10.8 0.2,-5 2.1,-9.6 5.2,-13.2 -4,-4.8 -10,-7.8 -16.8,-7.8 -12.2,0 -22,9.8 -22,21.8 -0.1,12 9.8,21.8 22,21.8"
   clip-path="url(#SVGID_2_)"
   id="path601"
   inkscape:connector-curvature="0"
   style="fill:#adacb2" />
	<path
   class="st3"
   d="m 2232.3,869.4 c -5,-2.6 -10.7,-4.1 -16.8,-4.1 -19.9,0 -36.2,16 -36.2,35.8 0,2.8 2.3,5.1 5.2,5.1 2.9,0 5.2,-2.3 5.2,-5.1 0,-14.1 11.6,-25.5 25.8,-25.5 2.5,0 4.9,0.5 7.2,1.1 2.7,-2.9 6,-5.4 9.6,-7.3"
   clip-path="url(#SVGID_2_)"
   id="path603"
   inkscape:connector-curvature="0"
   style="fill:#adacb2" />
	<path
   class="st3"
   d="m 2227.1,839.1 c 0,0.3 -0.1,0.5 -0.1,0.7 0,0.3 0.1,0.5 0.1,0.7 0,-0.3 0.1,-0.5 0.1,-0.7 0,-0.2 -0.1,-0.4 -0.1,-0.7"
   clip-path="url(#SVGID_2_)"
   id="path605"
   inkscape:connector-curvature="0"
   style="fill:#adacb2" />
	<path
   class="st3"
   d="m 2249.1,828.3 c 6.5,0 11.7,5.2 11.7,11.6 0,6.4 -5.2,11.6 -11.7,11.6 -6.2,0 -11.2,-4.8 -11.6,-10.8 -0.2,5 -2.1,9.6 -5.2,13.2 4,4.8 10,7.8 16.8,7.8 12.2,0 22,-9.8 22,-21.8 0,-12 -9.9,-21.8 -22,-21.8 -6.8,0 -12.8,3.1 -16.8,7.8 3.1,3.6 5,8.2 5.2,13.2 0.3,-6 5.4,-10.8 11.6,-10.8"
   clip-path="url(#SVGID_2_)"
   id="path607"
   inkscape:connector-curvature="0"
   style="fill:#adacb2" />
	<path
   class="st3"
   d="m 2227.2,839.9 c 0,0.3 -0.1,0.5 -0.1,0.7 0.2,5 2.1,9.6 5.2,13.2 3.1,-3.6 5,-8.2 5.2,-13.2 0,-0.3 -0.1,-0.5 -0.1,-0.7 0,-0.3 0.1,-0.5 0.1,-0.7 -0.2,-5 -2.1,-9.6 -5.2,-13.2 -3.1,3.6 -5,8.2 -5.2,13.2 0,0.2 0.1,0.4 0.1,0.7"
   clip-path="url(#SVGID_2_)"
   id="path609"
   inkscape:connector-curvature="0"
   style="fill:#adacb2" />
	<path
   class="st3"
   d="m 2249.1,865.3 c -6.1,0 -11.8,1.5 -16.8,4.1 3.6,1.9 6.8,4.3 9.6,7.2 2.3,-0.7 4.7,-1.1 7.2,-1.1 14.2,0 25.8,11.5 25.8,25.5 0,2.8 2.3,5.1 5.2,5.1 2.9,0 5.2,-2.3 5.2,-5.1 -0.1,-19.6 -16.3,-35.7 -36.2,-35.7"
   clip-path="url(#SVGID_2_)"
   id="path611"
   inkscape:connector-curvature="0"
   style="fill:#adacb2" />
	<path
   class="st3"
   d="m 2232.3,869.4 c -3.6,1.9 -6.8,4.3 -9.6,7.2 3.6,1 6.8,2.8 9.6,5.2 2.8,-2.4 6,-4.1 9.6,-5.2 -2.8,-2.8 -6,-5.3 -9.6,-7.2"
   clip-path="url(#SVGID_2_)"
   id="path613"
   inkscape:connector-curvature="0"
   style="fill:#adacb2" />
	<path
   class="st1"
   d="m 2128.7,861.7 c -12.2,0 -22,-9.8 -22,-21.8 0,-12 9.9,-21.8 22,-21.8 12.2,0 22,9.8 22,21.8 0,12 -9.9,21.8 -22,21.8 m 0,-33.4 c -6.5,0 -11.7,5.2 -11.7,11.6 0,6.4 5.3,11.6 11.7,11.6 6.5,0 11.7,-5.2 11.7,-11.6 0,-6.4 -5.3,-11.6 -11.7,-11.6"
   clip-path="url(#SVGID_2_)"
   id="path615"
   inkscape:connector-curvature="0"
   style="fill:#e9d43e" />
	<path
   class="st1"
   d="m 2159.7,906.2 c -2.9,0 -5.2,-2.3 -5.2,-5.1 0,-14.1 -11.6,-25.5 -25.8,-25.5 -14.2,0 -25.8,11.5 -25.8,25.5 0,2.8 -2.3,5.1 -5.2,5.1 -2.9,0 -5.2,-2.3 -5.2,-5.1 0,-19.7 16.2,-35.8 36.2,-35.8 19.9,0 36.2,16 36.2,35.8 -0.1,2.8 -2.4,5.1 -5.2,5.1"
   clip-path="url(#SVGID_2_)"
   id="path617"
   inkscape:connector-curvature="0"
   style="fill:#e9d43e" />
	<path
   class="st2"
   d="m 1976,861.7 c 7.5,0 14.1,-3.7 18.1,-9.4 -2.5,-3.5 -4,-7.8 -4,-12.4 0,-4.6 1.5,-8.9 4,-12.4 -4,-5.7 -10.6,-9.4 -18.1,-9.4 -12.2,0 -22,9.8 -22,21.8 0,12 9.9,21.8 22,21.8 m 0,-33.4 c 6.5,0 11.7,5.2 11.7,11.6 0,6.4 -5.2,11.6 -11.7,11.6 -6.5,0 -11.7,-5.2 -11.7,-11.6 0,-6.4 5.3,-11.6 11.7,-11.6"
   clip-path="url(#SVGID_2_)"
   id="path619"
   inkscape:connector-curvature="0"
   style="fill:#dd4f52" />
	<path
   class="st2"
   d="m 1994.1,870.2 c -5.3,-3.1 -11.5,-4.8 -18.1,-4.8 -19.9,0 -36.2,16 -36.2,35.8 0,2.8 2.3,5.1 5.2,5.1 2.9,0 5.2,-2.3 5.2,-5.1 0,-14.1 11.6,-25.5 25.8,-25.5 3.3,0 6.4,0.7 9.2,1.8 2.6,-3 5.6,-5.4 8.9,-7.3"
   clip-path="url(#SVGID_2_)"
   id="path621"
   inkscape:connector-curvature="0"
   style="fill:#dd4f52" />
	<path
   class="st2"
   d="m 1994.1,852.3 c 4,5.7 10.6,9.4 18.1,9.4 7.5,0 14.1,-3.7 18.1,-9.4 -2.5,-3.5 -4,-7.8 -4,-12.4 0,-4.6 1.5,-8.9 4,-12.4 -4,-5.7 -10.6,-9.4 -18.1,-9.4 -7.5,0 -14.1,3.7 -18.1,9.4 2.5,3.5 4,7.8 4,12.4 0,4.6 -1.5,8.9 -4,12.4 m 18.1,-24 c 6.5,0 11.7,5.2 11.7,11.6 0,6.4 -5.3,11.6 -11.7,11.6 -6.5,0 -11.7,-5.2 -11.7,-11.6 0,-6.4 5.2,-11.6 11.7,-11.6"
   clip-path="url(#SVGID_2_)"
   id="path623"
   inkscape:connector-curvature="0"
   style="fill:#dd4f52" />
	<path
   class="st2"
   d="m 1994.1,852.3 c 2.5,-3.5 4,-7.8 4,-12.4 0,-4.6 -1.5,-8.9 -4,-12.4 -2.5,3.5 -4,7.8 -4,12.4 0,4.6 1.5,8.9 4,12.4"
   clip-path="url(#SVGID_2_)"
   id="path625"
   inkscape:connector-curvature="0"
   style="fill:#dd4f52" />
	<path
   class="st2"
   d="m 2003,877.3 c 2.9,-1.1 6,-1.8 9.2,-1.8 3.3,0 6.4,0.7 9.2,1.8 2.6,-2.8 5.5,-5.2 8.9,-7.1 -5.3,-3.1 -11.5,-4.8 -18.1,-4.8 -6.6,0 -12.8,1.8 -18.1,4.8 3.3,1.9 6.3,4.3 8.9,7.1"
   clip-path="url(#SVGID_2_)"
   id="path627"
   inkscape:connector-curvature="0"
   style="fill:#dd4f52" />
	<path
   class="st2"
   d="m 1994.1,870.2 c -3.3,1.9 -6.3,4.3 -8.9,7.1 3.3,1.3 6.4,3.2 8.9,5.6 2.5,-2.4 5.5,-4.3 8.9,-5.6 -2.6,-2.8 -5.6,-5.2 -8.9,-7.1"
   clip-path="url(#SVGID_2_)"
   id="path629"
   inkscape:connector-curvature="0"
   style="fill:#dd4f52" />
	<path
   class="st2"
   d="m 2030.3,852.3 c 4,5.7 10.6,9.4 18.1,9.4 12.2,0 22,-9.8 22,-21.8 0,-12 -9.9,-21.8 -22,-21.8 -7.5,0 -14.1,3.7 -18.1,9.4 2.5,3.5 4,7.8 4,12.4 -0.1,4.6 -1.5,8.9 -4,12.4 m 18.1,-24 c 6.5,0 11.7,5.2 11.7,11.6 0,6.4 -5.2,11.6 -11.7,11.6 -6.5,0 -11.7,-5.2 -11.7,-11.6 0,-6.4 5.2,-11.6 11.7,-11.6"
   clip-path="url(#SVGID_2_)"
   id="path631"
   inkscape:connector-curvature="0"
   style="fill:#dd4f52" />
	<path
   class="st2"
   d="m 2030.3,852.3 c 2.5,-3.5 4,-7.8 4,-12.4 0,-4.6 -1.5,-8.9 -4,-12.4 -2.5,3.5 -4,7.8 -4,12.4 0,4.6 1.5,8.9 4,12.4"
   clip-path="url(#SVGID_2_)"
   id="path633"
   inkscape:connector-curvature="0"
   style="fill:#dd4f52" />
	<path
   class="st2"
   d="m 2048.4,865.3 c -6.6,0 -12.8,1.8 -18.1,4.8 3.3,1.9 6.3,4.3 8.9,7.1 2.9,-1.1 6,-1.8 9.2,-1.8 14.2,0 25.8,11.5 25.8,25.5 0,2.8 2.3,5.1 5.2,5.1 2.9,0 5.2,-2.3 5.2,-5.1 -0.1,-19.5 -16.3,-35.6 -36.2,-35.6"
   clip-path="url(#SVGID_2_)"
   id="path635"
   inkscape:connector-curvature="0"
   style="fill:#dd4f52" />
	<path
   class="st2"
   d="m 2030.3,870.2 c -3.3,1.9 -6.3,4.3 -8.9,7.1 3.3,1.3 6.4,3.2 8.9,5.6 2.5,-2.4 5.5,-4.3 8.9,-5.6 -2.6,-2.8 -5.6,-5.2 -8.9,-7.1"
   clip-path="url(#SVGID_2_)"
   id="path637"
   inkscape:connector-curvature="0"
   style="fill:#dd4f52" />
	<path
   class="st0"
   d="m 2093.9,1092.1 c -12.2,0 -22,-9.8 -22,-21.8 0,-12 9.9,-21.8 22,-21.8 12.2,0 22,9.8 22,21.8 0,12 -9.9,21.8 -22,21.8 m 0,-33.4 c -6.5,0 -11.7,5.2 -11.7,11.6 0,6.4 5.2,11.6 11.7,11.6 6.5,0 11.7,-5.2 11.7,-11.6 0,-6.4 -5.3,-11.6 -11.7,-11.6"
   clip-path="url(#SVGID_2_)"
   id="path639"
   inkscape:connector-curvature="0"
   style="fill:#3b34ef" />
	<path
   class="st0"
   d="m 2124.9,1136.6 c -2.9,0 -5.2,-2.3 -5.2,-5.1 0,-14.1 -11.6,-25.5 -25.8,-25.5 -14.2,0 -25.8,11.5 -25.8,25.5 0,2.8 -2.3,5.1 -5.2,5.1 -2.9,0 -5.2,-2.3 -5.2,-5.1 0,-19.7 16.2,-35.8 36.2,-35.8 19.9,0 36.2,16 36.2,35.8 0,2.8 -2.4,5.1 -5.2,5.1"
   clip-path="url(#SVGID_2_)"
   id="path641"
   inkscape:connector-curvature="0"
   style="fill:#3b34ef" />
	<path
   class="st1"
   d="m 2338.4,1092.1 c -12.2,0 -22,-9.8 -22,-21.8 0,-12 9.9,-21.8 22,-21.8 12.2,0 22,9.8 22,21.8 0.1,12 -9.8,21.8 -22,21.8 m 0,-33.4 c -6.5,0 -11.7,5.2 -11.7,11.6 0,6.4 5.2,11.6 11.7,11.6 6.5,0 11.7,-5.2 11.7,-11.6 0,-6.4 -5.2,-11.6 -11.7,-11.6"
   clip-path="url(#SVGID_2_)"
   id="path643"
   inkscape:connector-curvature="0"
   style="fill:#e9d43e" />
	<path
   class="st1"
   d="m 2369.4,1136.6 c -2.9,0 -5.2,-2.3 -5.2,-5.1 0,-14.1 -11.6,-25.5 -25.8,-25.5 -14.2,0 -25.8,11.5 -25.8,25.5 0,2.8 -2.3,5.1 -5.2,5.1 -2.9,0 -5.2,-2.3 -5.2,-5.1 0,-19.7 16.2,-35.8 36.2,-35.8 19.9,0 36.2,16 36.2,35.8 0,2.8 -2.3,5.1 -5.2,5.1"
   clip-path="url(#SVGID_2_)"
   id="path645"
   inkscape:connector-curvature="0"
   style="fill:#e9d43e" />
	<path
   class="st2"
   d="m 2180.5,1092.1 c 7.5,0 14.1,-3.7 18.1,-9.4 -2.5,-3.5 -4,-7.8 -4,-12.4 0,-4.6 1.5,-8.9 4,-12.4 -4,-5.7 -10.6,-9.4 -18.1,-9.4 -12.2,0 -22,9.8 -22,21.8 0,12 9.9,21.8 22,21.8 m 0,-33.4 c 6.5,0 11.7,5.2 11.7,11.6 0,6.4 -5.2,11.6 -11.7,11.6 -6.5,0 -11.7,-5.2 -11.7,-11.6 0,-6.4 5.3,-11.6 11.7,-11.6"
   clip-path="url(#SVGID_2_)"
   id="path647"
   inkscape:connector-curvature="0"
   style="fill:#dd4f52" />
	<path
   class="st2"
   d="m 2198.6,1100.5 c -5.3,-3.1 -11.5,-4.8 -18.1,-4.8 -19.9,0 -36.2,16 -36.2,35.8 0,2.8 2.3,5.1 5.2,5.1 2.9,0 5.2,-2.3 5.2,-5.1 0,-14.1 11.6,-25.5 25.8,-25.5 3.3,0 6.4,0.7 9.2,1.8 2.6,-2.9 5.6,-5.4 8.9,-7.3"
   clip-path="url(#SVGID_2_)"
   id="path649"
   inkscape:connector-curvature="0"
   style="fill:#dd4f52" />
	<path
   class="st2"
   d="m 2198.6,1082.7 c 4,5.7 10.6,9.4 18.1,9.4 7.5,0 14.1,-3.7 18.1,-9.4 -2.5,-3.5 -4,-7.8 -4,-12.4 0,-4.6 1.5,-8.9 4,-12.4 -4,-5.7 -10.6,-9.4 -18.1,-9.4 -7.5,0 -14.1,3.7 -18.1,9.4 2.5,3.5 4,7.8 4,12.4 0,4.6 -1.5,8.8 -4,12.4 m 18.1,-24 c 6.5,0 11.7,5.2 11.7,11.6 0,6.4 -5.2,11.6 -11.7,11.6 -6.5,0 -11.7,-5.2 -11.7,-11.6 0,-6.4 5.3,-11.6 11.7,-11.6"
   clip-path="url(#SVGID_2_)"
   id="path651"
   inkscape:connector-curvature="0"
   style="fill:#dd4f52" />
	<path
   class="st2"
   d="m 2198.6,1082.7 c 2.5,-3.5 4,-7.8 4,-12.4 0,-4.6 -1.5,-8.9 -4,-12.4 -2.5,3.5 -4,7.8 -4,12.4 0.1,4.6 1.5,8.8 4,12.4"
   clip-path="url(#SVGID_2_)"
   id="path653"
   inkscape:connector-curvature="0"
   style="fill:#dd4f52" />
	<path
   class="st2"
   d="m 2207.5,1107.7 c 2.9,-1.1 6,-1.8 9.2,-1.8 3.3,0 6.4,0.7 9.2,1.8 2.6,-2.8 5.5,-5.2 8.9,-7.1 -5.3,-3.1 -11.5,-4.8 -18.1,-4.8 -6.6,0 -12.8,1.8 -18.1,4.8 3.4,1.9 6.3,4.3 8.9,7.1"
   clip-path="url(#SVGID_2_)"
   id="path655"
   inkscape:connector-curvature="0"
   style="fill:#dd4f52" />
	<path
   class="st2"
   d="m 2198.6,1100.5 c -3.3,1.9 -6.3,4.3 -8.9,7.1 3.3,1.3 6.4,3.2 8.9,5.6 2.5,-2.4 5.5,-4.3 8.9,-5.6 -2.6,-2.7 -5.5,-5.1 -8.9,-7.1"
   clip-path="url(#SVGID_2_)"
   id="path657"
   inkscape:connector-curvature="0"
   style="fill:#dd4f52" />
	<path
   class="st2"
   d="m 2234.8,1082.7 c 4,5.7 10.6,9.4 18.1,9.4 12.2,0 22,-9.8 22,-21.8 0,-12 -9.9,-21.8 -22,-21.8 -7.5,0 -14.1,3.7 -18.1,9.4 2.5,3.5 4,7.8 4,12.4 0,4.6 -1.5,8.8 -4,12.4 m 18.1,-24 c 6.5,0 11.7,5.2 11.7,11.6 0,6.4 -5.2,11.6 -11.7,11.6 -6.5,0 -11.7,-5.2 -11.7,-11.6 0,-6.4 5.2,-11.6 11.7,-11.6"
   clip-path="url(#SVGID_2_)"
   id="path659"
   inkscape:connector-curvature="0"
   style="fill:#dd4f52" />
	<path
   class="st2"
   d="m 2234.8,1082.7 c 2.5,-3.5 4,-7.8 4,-12.4 0,-4.6 -1.5,-8.9 -4,-12.4 -2.5,3.5 -4,7.8 -4,12.4 0,4.6 1.5,8.8 4,12.4"
   clip-path="url(#SVGID_2_)"
   id="path661"
   inkscape:connector-curvature="0"
   style="fill:#dd4f52" />
	<path
   class="st2"
   d="m 2252.9,1095.7 c -6.6,0 -12.8,1.8 -18.1,4.8 3.3,1.9 6.3,4.3 8.9,7.1 2.9,-1.1 6,-1.8 9.2,-1.8 14.2,0 25.8,11.5 25.8,25.5 0,2.8 2.3,5.1 5.2,5.1 2.9,0 5.2,-2.3 5.2,-5.1 -0.1,-19.6 -16.3,-35.6 -36.2,-35.6"
   clip-path="url(#SVGID_2_)"
   id="path663"
   inkscape:connector-curvature="0"
   style="fill:#dd4f52" />
	<path
   class="st2"
   d="m 2234.8,1100.5 c -3.3,1.9 -6.3,4.3 -8.9,7.1 3.3,1.3 6.4,3.2 8.9,5.6 2.5,-2.4 5.5,-4.3 8.9,-5.6 -2.6,-2.7 -5.6,-5.1 -8.9,-7.1"
   clip-path="url(#SVGID_2_)"
   id="path665"
   inkscape:connector-curvature="0"
   style="fill:#dd4f52" />
	<path
   class="st2"
   d="m 1505.6,863.2 c 7.5,0 14.1,-3.7 18.1,-9.4 -2.5,-3.5 -4,-7.8 -4,-12.4 0,-4.6 1.5,-8.9 4,-12.4 -4,-5.7 -10.6,-9.4 -18.1,-9.4 -12.2,0 -22,9.8 -22,21.8 -0.1,12.1 9.8,21.8 22,21.8 m 0,-33.3 c 6.5,0 11.7,5.2 11.7,11.6 0,6.4 -5.2,11.6 -11.7,11.6 -6.5,0 -11.7,-5.2 -11.7,-11.6 0,-6.4 5.2,-11.6 11.7,-11.6"
   clip-path="url(#SVGID_2_)"
   id="path667"
   inkscape:connector-curvature="0"
   style="fill:#dd4f52" />
	<path
   class="st2"
   d="m 1523.7,871.7 c -5.3,-3.1 -11.5,-4.8 -18.1,-4.8 -19.9,0 -36.2,16 -36.2,35.8 0,2.8 2.3,5.1 5.2,5.1 2.9,0 5.2,-2.3 5.2,-5.1 0,-14.1 11.6,-25.5 25.8,-25.5 3.3,0 6.4,0.7 9.2,1.8 2.6,-3 5.5,-5.4 8.9,-7.3"
   clip-path="url(#SVGID_2_)"
   id="path669"
   inkscape:connector-curvature="0"
   style="fill:#dd4f52" />
	<path
   class="st2"
   d="m 1523.7,853.9 c 4,5.7 10.6,9.4 18.1,9.4 7.5,0 14.1,-3.7 18.1,-9.4 -2.5,-3.5 -4,-7.8 -4,-12.4 0,-4.6 1.5,-8.9 4,-12.4 -4,-5.7 -10.6,-9.4 -18.1,-9.4 -7.5,0 -14.1,3.7 -18.1,9.4 2.5,3.5 4,7.8 4,12.4 -0.1,4.6 -1.5,8.8 -4,12.4 m 18.1,-24 c 6.5,0 11.7,5.2 11.7,11.6 0,6.4 -5.3,11.6 -11.7,11.6 -6.5,0 -11.7,-5.2 -11.7,-11.6 0,-6.4 5.2,-11.6 11.7,-11.6"
   clip-path="url(#SVGID_2_)"
   id="path671"
   inkscape:connector-curvature="0"
   style="fill:#dd4f52" />
	<path
   class="st2"
   d="m 1523.7,853.9 c 2.5,-3.5 4,-7.8 4,-12.4 0,-4.6 -1.5,-8.9 -4,-12.4 -2.5,3.5 -4,7.8 -4,12.4 0,4.6 1.5,8.8 4,12.4"
   clip-path="url(#SVGID_2_)"
   id="path673"
   inkscape:connector-curvature="0"
   style="fill:#dd4f52" />
	<path
   class="st2"
   d="m 1532.5,878.9 c 2.9,-1.1 6,-1.8 9.2,-1.8 3.3,0 6.4,0.7 9.2,1.8 2.6,-2.8 5.5,-5.2 8.9,-7.1 -5.3,-3.1 -11.5,-4.8 -18.1,-4.8 -6.6,0 -12.8,1.8 -18.1,4.8 3.4,1.8 6.4,4.2 8.9,7.1"
   clip-path="url(#SVGID_2_)"
   id="path675"
   inkscape:connector-curvature="0"
   style="fill:#dd4f52" />
	<path
   class="st2"
   d="m 1523.7,871.7 c -3.3,1.9 -6.3,4.3 -8.9,7.1 3.3,1.3 6.4,3.2 8.9,5.6 2.5,-2.4 5.5,-4.3 8.9,-5.6 -2.6,-2.8 -5.6,-5.2 -8.9,-7.1"
   clip-path="url(#SVGID_2_)"
   id="path677"
   inkscape:connector-curvature="0"
   style="fill:#dd4f52" />
	<path
   class="st2"
   d="m 1559.8,853.9 c 4,5.7 10.6,9.4 18.1,9.4 12.2,0 22,-9.8 22,-21.8 0,-12 -9.9,-21.8 -22,-21.8 -7.5,0 -14.1,3.7 -18.1,9.4 2.5,3.5 4,7.8 4,12.4 0,4.6 -1.5,8.8 -4,12.4 m 18.1,-24 c 6.5,0 11.7,5.2 11.7,11.6 0,6.4 -5.2,11.6 -11.7,11.6 -6.5,0 -11.7,-5.2 -11.7,-11.6 0,-6.4 5.3,-11.6 11.7,-11.6"
   clip-path="url(#SVGID_2_)"
   id="path679"
   inkscape:connector-curvature="0"
   style="fill:#dd4f52" />
	<path
   class="st2"
   d="m 1559.8,853.9 c 2.5,-3.5 4,-7.8 4,-12.4 0,-4.6 -1.5,-8.9 -4,-12.4 -2.5,3.5 -4,7.8 -4,12.4 0,4.6 1.6,8.8 4,12.4"
   clip-path="url(#SVGID_2_)"
   id="path681"
   inkscape:connector-curvature="0"
   style="fill:#dd4f52" />
	<path
   class="st2"
   d="m 1577.9,866.9 c -6.6,0 -12.8,1.8 -18.1,4.8 3.3,1.9 6.3,4.3 8.9,7.1 2.9,-1.1 6,-1.8 9.2,-1.8 14.2,0 25.8,11.5 25.8,25.5 0,2.8 2.3,5.1 5.2,5.1 2.9,0 5.2,-2.3 5.2,-5.1 0,-19.6 -16.2,-35.6 -36.2,-35.6"
   clip-path="url(#SVGID_2_)"
   id="path683"
   inkscape:connector-curvature="0"
   style="fill:#dd4f52" />
	<path
   class="st2"
   d="m 1559.8,871.7 c -3.3,1.9 -6.3,4.3 -8.9,7.1 3.3,1.3 6.4,3.2 8.9,5.6 2.5,-2.4 5.5,-4.3 8.9,-5.6 -2.5,-2.8 -5.5,-5.2 -8.9,-7.1"
   clip-path="url(#SVGID_2_)"
   id="path685"
   inkscape:connector-curvature="0"
   style="fill:#dd4f52" />
	<path
   class="st0"
   d="m 1662.8,863.2 c -12.2,0 -22,-9.8 -22,-21.8 0,-12 9.9,-21.8 22,-21.8 12.2,0 22,9.8 22,21.8 0.1,12.1 -9.8,21.8 -22,21.8 m 0,-33.3 c -6.5,0 -11.7,5.2 -11.7,11.6 0,6.4 5.2,11.6 11.7,11.6 6.5,0 11.7,-5.2 11.7,-11.6 0,-6.4 -5.2,-11.6 -11.7,-11.6"
   clip-path="url(#SVGID_2_)"
   id="path687"
   inkscape:connector-curvature="0"
   style="fill:#3b34ef" />
	<path
   class="st0"
   d="m 1693.8,907.7 c -2.9,0 -5.2,-2.3 -5.2,-5.1 0,-14.1 -11.6,-25.5 -25.8,-25.5 -14.2,0 -25.8,11.5 -25.8,25.5 0,2.8 -2.3,5.1 -5.2,5.1 -2.9,0 -5.2,-2.3 -5.2,-5.1 0,-19.7 16.2,-35.8 36.2,-35.8 19.9,0 36.2,16 36.2,35.8 0,2.9 -2.3,5.1 -5.2,5.1"
   clip-path="url(#SVGID_2_)"
   id="path689"
   inkscape:connector-curvature="0"
   style="fill:#3b34ef" />
	<path
   class="st0"
   d="m 487.7,1384.7 c -12.2,0 -22,-9.8 -22,-21.8 0,-12 9.9,-21.8 22,-21.8 12.2,0 22,9.8 22,21.8 0,12.1 -9.9,21.8 -22,21.8 m 0,-33.3 c -6.5,0 -11.7,5.2 -11.7,11.6 0,6.4 5.3,11.6 11.7,11.6 6.5,0 11.7,-5.2 11.7,-11.6 0,-6.4 -5.3,-11.6 -11.7,-11.6"
   clip-path="url(#SVGID_2_)"
   id="path691"
   inkscape:connector-curvature="0"
   style="fill:#3b34ef" />
	<path
   class="st0"
   d="m 518.7,1429.2 c -2.9,0 -5.2,-2.3 -5.2,-5.1 0,-14.1 -11.6,-25.5 -25.8,-25.5 -14.2,0 -25.8,11.5 -25.8,25.5 0,2.8 -2.3,5.1 -5.2,5.1 -2.9,0 -5.2,-2.3 -5.2,-5.1 0,-19.7 16.2,-35.8 36.2,-35.8 20,0 36.2,16 36.2,35.8 -0.1,2.9 -2.4,5.1 -5.2,5.1"
   clip-path="url(#SVGID_2_)"
   id="path693"
   inkscape:connector-curvature="0"
   style="fill:#3b34ef" />
	<path
   class="st0"
   d="m 400.6,1162.7 c -12.2,0 -22,-9.8 -22,-21.8 0,-12 9.9,-21.8 22,-21.8 12.2,0 22,9.8 22,21.8 0.1,12 -9.8,21.8 -22,21.8 m 0,-33.4 c -6.5,0 -11.7,5.2 -11.7,11.6 0,6.4 5.2,11.6 11.7,11.6 6.5,0 11.7,-5.2 11.7,-11.6 0,-6.4 -5.2,-11.6 -11.7,-11.6"
   clip-path="url(#SVGID_2_)"
   id="path695"
   inkscape:connector-curvature="0"
   style="fill:#3b34ef" />
	<path
   class="st0"
   d="m 431.6,1207.2 c -2.9,0 -5.2,-2.3 -5.2,-5.1 0,-14.1 -11.6,-25.5 -25.8,-25.5 -14.2,0 -25.8,11.5 -25.8,25.5 0,2.8 -2.3,5.1 -5.2,5.1 -2.9,0 -5.2,-2.3 -5.2,-5.1 0,-19.7 16.2,-35.8 36.2,-35.8 19.9,0 36.2,16 36.2,35.8 0,2.8 -2.3,5.1 -5.2,5.1"
   clip-path="url(#SVGID_2_)"
   id="path697"
   inkscape:connector-curvature="0"
   style="fill:#3b34ef" />
	<path
   class="st0"
   d="m 484.7,1162.7 c -12.2,0 -22,-9.8 -22,-21.8 0,-12 9.9,-21.8 22,-21.8 12.2,0 22,9.8 22,21.8 0,12 -9.9,21.8 -22,21.8 m 0,-33.4 c -6.5,0 -11.7,5.2 -11.7,11.6 0,6.4 5.3,11.6 11.7,11.6 6.5,0 11.7,-5.2 11.7,-11.6 0,-6.4 -5.3,-11.6 -11.7,-11.6"
   clip-path="url(#SVGID_2_)"
   id="path699"
   inkscape:connector-curvature="0"
   style="fill:#3b34ef" />
	<path
   class="st0"
   d="m 515.7,1207.2 c -2.9,0 -5.2,-2.3 -5.2,-5.1 0,-14.1 -11.6,-25.5 -25.8,-25.5 -14.2,0 -25.8,11.5 -25.8,25.5 0,2.8 -2.3,5.1 -5.2,5.1 -2.9,0 -5.2,-2.3 -5.2,-5.1 0,-19.7 16.2,-35.8 36.2,-35.8 20,0 36.2,16 36.2,35.8 -0.1,2.8 -2.4,5.1 -5.2,5.1"
   clip-path="url(#SVGID_2_)"
   id="path701"
   inkscape:connector-curvature="0"
   style="fill:#3b34ef" />
	<path
   class="st0"
   d="m 569.1,1162.7 c -12.2,0 -22,-9.8 -22,-21.8 0,-12 9.9,-21.8 22,-21.8 12.2,0 22,9.8 22,21.8 0.1,12 -9.8,21.8 -22,21.8 m 0,-33.4 c -6.5,0 -11.7,5.2 -11.7,11.6 0,6.4 5.3,11.6 11.7,11.6 6.5,0 11.7,-5.2 11.7,-11.6 0,-6.4 -5.2,-11.6 -11.7,-11.6"
   clip-path="url(#SVGID_2_)"
   id="path703"
   inkscape:connector-curvature="0"
   style="fill:#3b34ef" />
	<path
   class="st0"
   d="m 600.1,1207.2 c -2.9,0 -5.2,-2.3 -5.2,-5.1 0,-14.1 -11.6,-25.5 -25.8,-25.5 -14.2,0 -25.8,11.5 -25.8,25.5 0,2.8 -2.3,5.1 -5.2,5.1 -2.9,0 -5.2,-2.3 -5.2,-5.1 0,-19.7 16.2,-35.8 36.2,-35.8 19.9,0 36.2,16 36.2,35.8 0,2.8 -2.3,5.1 -5.2,5.1"
   clip-path="url(#SVGID_2_)"
   id="path705"
   inkscape:connector-curvature="0"
   style="fill:#3b34ef" />
	<rect
   x="778"
   y="1116.4"
   class="st0"
   width="35.200001"
   height="34.799999"
   clip-path="url(#SVGID_2_)"
   id="rect707"
   style="fill:#3b34ef" />
	<rect
   x="823.90002"
   y="1116.4"
   class="st0"
   width="35.200001"
   height="34.799999"
   clip-path="url(#SVGID_2_)"
   id="rect709"
   style="fill:#3b34ef" />
	<rect
   x="869.90002"
   y="1116.4"
   class="st0"
   width="35.200001"
   height="34.799999"
   clip-path="url(#SVGID_2_)"
   id="rect711"
   style="fill:#3b34ef" />
	<rect
   x="915.90002"
   y="1116.4"
   class="st0"
   width="35.200001"
   height="34.799999"
   clip-path="url(#SVGID_2_)"
   id="rect713"
   style="fill:#3b34ef" />
	<rect
   x="961.90002"
   y="1116.4"
   class="st0"
   width="35.200001"
   height="34.799999"
   clip-path="url(#SVGID_2_)"
   id="rect715"
   style="fill:#3b34ef" />
	<rect
   x="1007.8"
   y="1116.4"
   class="st0"
   width="35.200001"
   height="34.799999"
   clip-path="url(#SVGID_2_)"
   id="rect717"
   style="fill:#3b34ef" />
	<rect
   x="1053.8"
   y="1116.4"
   class="st0"
   width="35.200001"
   height="34.799999"
   clip-path="url(#SVGID_2_)"
   id="rect719"
   style="fill:#3b34ef" />
	<rect
   x="778"
   y="1163"
   class="st0"
   width="35.200001"
   height="34.799999"
   clip-path="url(#SVGID_2_)"
   id="rect721"
   style="fill:#3b34ef" />
	<rect
   x="823.90002"
   y="1163"
   class="st0"
   width="35.200001"
   height="34.799999"
   clip-path="url(#SVGID_2_)"
   id="rect723"
   style="fill:#3b34ef" />
	<rect
   x="869.90002"
   y="1163"
   class="st0"
   width="35.200001"
   height="34.799999"
   clip-path="url(#SVGID_2_)"
   id="rect725"
   style="fill:#3b34ef" />
	<rect
   x="915.90002"
   y="1163"
   class="st0"
   width="35.200001"
   height="34.799999"
   clip-path="url(#SVGID_2_)"
   id="rect727"
   style="fill:#3b34ef" />
	<rect
   x="961.90002"
   y="1163"
   class="st0"
   width="35.200001"
   height="34.799999"
   clip-path="url(#SVGID_2_)"
   id="rect729"
   style="fill:#3b34ef" />
	<rect
   x="1007.8"
   y="1163"
   class="st0"
   width="35.200001"
   height="34.799999"
   clip-path="url(#SVGID_2_)"
   id="rect731"
   style="fill:#3b34ef" />
	<rect
   x="1053.8"
   y="1163"
   class="st0"
   width="35.200001"
   height="34.799999"
   clip-path="url(#SVGID_2_)"
   id="rect733"
   style="fill:#3b34ef" />
	<rect
   x="778"
   y="1209.7"
   class="st0"
   width="35.200001"
   height="34.799999"
   clip-path="url(#SVGID_2_)"
   id="rect735"
   style="fill:#3b34ef" />
	<rect
   x="823.90002"
   y="1209.7"
   class="st0"
   width="35.200001"
   height="34.799999"
   clip-path="url(#SVGID_2_)"
   id="rect737"
   style="fill:#3b34ef" />
	<rect
   x="869.90002"
   y="1209.7"
   class="st0"
   width="35.200001"
   height="34.799999"
   clip-path="url(#SVGID_2_)"
   id="rect739"
   style="fill:#3b34ef" />
	<rect
   x="915.90002"
   y="1209.7"
   class="st0"
   width="35.200001"
   height="34.799999"
   clip-path="url(#SVGID_2_)"
   id="rect741"
   style="fill:#3b34ef" />
	<rect
   x="961.90002"
   y="1209.7"
   class="st0"
   width="35.200001"
   height="34.799999"
   clip-path="url(#SVGID_2_)"
   id="rect743"
   style="fill:#3b34ef" />
	<rect
   x="1007.8"
   y="1209.7"
   class="st0"
   width="35.200001"
   height="34.799999"
   clip-path="url(#SVGID_2_)"
   id="rect745"
   style="fill:#3b34ef" />
	<rect
   x="1053.8"
   y="1209.7"
   class="st0"
   width="35.200001"
   height="34.799999"
   clip-path="url(#SVGID_2_)"
   id="rect747"
   style="fill:#3b34ef" />
	<rect
   x="778"
   y="1256.3"
   class="st0"
   width="35.200001"
   height="34.799999"
   clip-path="url(#SVGID_2_)"
   id="rect749"
   style="fill:#3b34ef" />
	<rect
   x="823.90002"
   y="1256.3"
   class="st0"
   width="35.200001"
   height="34.799999"
   clip-path="url(#SVGID_2_)"
   id="rect751"
   style="fill:#3b34ef" />
	<rect
   x="869.90002"
   y="1256.3"
   class="st0"
   width="35.200001"
   height="34.799999"
   clip-path="url(#SVGID_2_)"
   id="rect753"
   style="fill:#3b34ef" />
	<rect
   x="915.90002"
   y="1256.3"
   class="st0"
   width="35.200001"
   height="34.799999"
   clip-path="url(#SVGID_2_)"
   id="rect755"
   style="fill:#3b34ef" />
	<rect
   x="961.90002"
   y="1256.3"
   class="st0"
   width="35.200001"
   height="34.799999"
   clip-path="url(#SVGID_2_)"
   id="rect757"
   style="fill:#3b34ef" />
	<rect
   x="1007.8"
   y="1256.3"
   class="st0"
   width="35.200001"
   height="34.799999"
   clip-path="url(#SVGID_2_)"
   id="rect759"
   style="fill:#3b34ef" />
	<rect
   x="1053.8"
   y="1256.3"
   class="st0"
   width="35.200001"
   height="34.799999"
   clip-path="url(#SVGID_2_)"
   id="rect761"
   style="fill:#3b34ef" />
	<rect
   x="778"
   y="1303"
   class="st0"
   width="35.200001"
   height="34.799999"
   clip-path="url(#SVGID_2_)"
   id="rect763"
   style="fill:#3b34ef" />
	<rect
   x="823.90002"
   y="1303"
   class="st0"
   width="35.200001"
   height="34.799999"
   clip-path="url(#SVGID_2_)"
   id="rect765"
   style="fill:#3b34ef" />
	<rect
   x="869.90002"
   y="1303"
   class="st0"
   width="35.200001"
   height="34.799999"
   clip-path="url(#SVGID_2_)"
   id="rect767"
   style="fill:#3b34ef" />
	<rect
   x="915.90002"
   y="1303"
   class="st2"
   width="35.200001"
   height="34.799999"
   clip-path="url(#SVGID_2_)"
   id="rect769"
   style="fill:#dd4f52" />
	<rect
   x="961.90002"
   y="1303"
   class="st2"
   width="35.200001"
   height="34.799999"
   clip-path="url(#SVGID_2_)"
   id="rect771"
   style="fill:#dd4f52" />
	<rect
   x="1007.8"
   y="1303"
   class="st2"
   width="35.200001"
   height="34.799999"
   clip-path="url(#SVGID_2_)"
   id="rect773"
   style="fill:#dd4f52" />
	<rect
   x="1053.8"
   y="1303"
   class="st2"
   width="35.200001"
   height="34.799999"
   clip-path="url(#SVGID_2_)"
   id="rect775"
   style="fill:#dd4f52" />
	<rect
   x="778"
   y="1349.6"
   class="st0"
   width="35.200001"
   height="34.799999"
   clip-path="url(#SVGID_2_)"
   id="rect777"
   style="fill:#3b34ef" />
	<rect
   x="823.90002"
   y="1349.6"
   class="st0"
   width="35.200001"
   height="34.799999"
   clip-path="url(#SVGID_2_)"
   id="rect779"
   style="fill:#3b34ef" />
	<rect
   x="869.90002"
   y="1349.6"
   class="st0"
   width="35.200001"
   height="34.799999"
   clip-path="url(#SVGID_2_)"
   id="rect781"
   style="fill:#3b34ef" />
	<rect
   x="915.90002"
   y="1349.6"
   class="st2"
   width="35.200001"
   height="34.799999"
   clip-path="url(#SVGID_2_)"
   id="rect783"
   style="fill:#dd4f52" />
	<rect
   x="961.90002"
   y="1349.6"
   class="st2"
   width="35.200001"
   height="34.799999"
   clip-path="url(#SVGID_2_)"
   id="rect785"
   style="fill:#dd4f52" />
	<rect
   x="1007.8"
   y="1349.6"
   class="st2"
   width="35.200001"
   height="34.799999"
   clip-path="url(#SVGID_2_)"
   id="rect787"
   style="fill:#dd4f52" />
	<rect
   x="1053.8"
   y="1349.6"
   class="st2"
   width="35.200001"
   height="34.799999"
   clip-path="url(#SVGID_2_)"
   id="rect789"
   style="fill:#dd4f52" />
	<rect
   x="778"
   y="1396.2"
   class="st0"
   width="35.200001"
   height="34.799999"
   clip-path="url(#SVGID_2_)"
   id="rect791"
   style="fill:#3b34ef" />
	<rect
   x="823.90002"
   y="1396.2"
   class="st0"
   width="35.200001"
   height="34.799999"
   clip-path="url(#SVGID_2_)"
   id="rect793"
   style="fill:#3b34ef" />
	<rect
   x="869.90002"
   y="1396.2"
   class="st0"
   width="35.200001"
   height="34.799999"
   clip-path="url(#SVGID_2_)"
   id="rect795"
   style="fill:#3b34ef" />
	<rect
   x="915.90002"
   y="1396.2"
   class="st2"
   width="35.200001"
   height="34.799999"
   clip-path="url(#SVGID_2_)"
   id="rect797"
   style="fill:#dd4f52" />
	<rect
   x="961.90002"
   y="1396.2"
   class="st2"
   width="35.200001"
   height="34.799999"
   clip-path="url(#SVGID_2_)"
   id="rect799"
   style="fill:#dd4f52" />
	<rect
   x="1007.8"
   y="1396.2"
   class="st2"
   width="35.200001"
   height="34.799999"
   clip-path="url(#SVGID_2_)"
   id="rect801"
   style="fill:#dd4f52" />
	<rect
   x="1053.8"
   y="1396.2"
   class="st2"
   width="35.200001"
   height="34.799999"
   clip-path="url(#SVGID_2_)"
   id="rect803"
   style="fill:#dd4f52" />
	<rect
   x="1238.7"
   y="1301.3"
   class="st2"
   width="35.200001"
   height="34.799999"
   clip-path="url(#SVGID_2_)"
   id="rect805"
   style="fill:#dd4f52" />
	<rect
   x="1284.6"
   y="1301.3"
   class="st2"
   width="35.200001"
   height="34.799999"
   clip-path="url(#SVGID_2_)"
   id="rect807"
   style="fill:#dd4f52" />
	<rect
   x="1330.6"
   y="1301.3"
   class="st2"
   width="35.200001"
   height="34.799999"
   clip-path="url(#SVGID_2_)"
   id="rect809"
   style="fill:#dd4f52" />
	<rect
   x="1376.6"
   y="1301.3"
   class="st2"
   width="35.200001"
   height="34.799999"
   clip-path="url(#SVGID_2_)"
   id="rect811"
   style="fill:#dd4f52" />
	<rect
   x="1238.7"
   y="1348"
   class="st2"
   width="35.200001"
   height="34.799999"
   clip-path="url(#SVGID_2_)"
   id="rect813"
   style="fill:#dd4f52" />
	<rect
   x="1284.6"
   y="1348"
   class="st2"
   width="35.200001"
   height="34.799999"
   clip-path="url(#SVGID_2_)"
   id="rect815"
   style="fill:#dd4f52" />
	<rect
   x="1330.6"
   y="1348"
   class="st2"
   width="35.200001"
   height="34.799999"
   clip-path="url(#SVGID_2_)"
   id="rect817"
   style="fill:#dd4f52" />
	<rect
   x="1376.6"
   y="1348"
   class="st2"
   width="35.200001"
   height="34.799999"
   clip-path="url(#SVGID_2_)"
   id="rect819"
   style="fill:#dd4f52" />
	<rect
   x="1238.7"
   y="1394.6"
   class="st2"
   width="35.200001"
   height="34.799999"
   clip-path="url(#SVGID_2_)"
   id="rect821"
   style="fill:#dd4f52" />
	<rect
   x="1284.6"
   y="1394.6"
   class="st2"
   width="35.200001"
   height="34.799999"
   clip-path="url(#SVGID_2_)"
   id="rect823"
   style="fill:#dd4f52" />
	<rect
   x="1330.6"
   y="1394.6"
   class="st2"
   width="35.200001"
   height="34.799999"
   clip-path="url(#SVGID_2_)"
   id="rect825"
   style="fill:#dd4f52" />
	<rect
   x="1376.6"
   y="1394.6"
   class="st2"
   width="35.200001"
   height="34.799999"
   clip-path="url(#SVGID_2_)"
   id="rect827"
   style="fill:#dd4f52" />
	<path
   class="st0"
   d="m 1799.7,1246.1 c 64.9,0 117.6,52.2 117.6,116.3 0,64.1 -52.8,116.3 -117.6,116.3 -64.9,0 -117.6,-52.2 -117.6,-116.3 0,-64.1 52.7,-116.3 117.6,-116.3 m 0,-103.4 c -122.8,0 -222.3,98.4 -222.3,219.8 0,121.4 99.5,219.8 222.3,219.8 122.8,0 222.3,-98.4 222.3,-219.8 0,-121.4 -99.5,-219.8 -222.3,-219.8"
   clip-path="url(#SVGID_2_)"
   id="path829"
   inkscape:connector-curvature="0"
   style="fill:#3b34ef" />
</g>
<g
   id="g907"
   transform="translate(-332.49179,-818.1)">
	<defs
   id="defs834">
		<rect
   id="SVGID_3_"
   x="291.70001"
   y="818.09998"
   width="2283.2"
   height="1243.4" />
	</defs>
	<clipPath
   id="SVGID_4_">
		<use
   xlink:href="#SVGID_3_"
   style="overflow:visible"
   id="use836"
   x="0"
   y="0"
   width="100%"
   height="100%" />
	</clipPath>
	<g
   class="st4"
   clip-path="url(#SVGID_4_)"
   id="g841">
		<text
   transform="matrix(1.0116,0,0,1,390.0513,1027.2886)"
   class="st5 st6 st7"
   id="text839"
   style="font-size:51.73379898px;font-family:Apercu-Bold;fill:#211915">Product</text>

	</g>
	<g
   class="st4"
   clip-path="url(#SVGID_4_)"
   id="g845">
		<text
   transform="matrix(1.0116,0,0,1,407.1655,1089.3726)"
   class="st5 st6 st7"
   id="text843"
   style="font-size:51.73379898px;font-family:Apercu-Bold;fill:#211915">Owner</text>

	</g>
	<g
   class="st4"
   clip-path="url(#SVGID_4_)"
   id="g849">
		<text
   transform="matrix(1.0116,0,0,1,772.1069,1026.0469)"
   class="st5 st6 st7"
   id="text847"
   style="font-size:51.73379898px;font-family:Apercu-Bold;fill:#211915">Product</text>

	</g>
	<g
   class="st4"
   clip-path="url(#SVGID_4_)"
   id="g853">
		<text
   transform="matrix(1.0116,0,0,1,772.1069,1088.1313)"
   class="st5 st6 st7"
   id="text851"
   style="font-size:51.73379898px;font-family:Apercu-Bold;fill:#211915">Backlog</text>

	</g>
	<g
   class="st4"
   clip-path="url(#SVGID_4_)"
   id="g857">
		<text
   transform="matrix(1.0116,0,0,1,1143.1177,1177.6294)"
   class="st5 st6 st7"
   id="text855"
   style="font-size:51.73379898px;font-family:Apercu-Bold;fill:#211915">Sprint Planning</text>

	</g>
	<g
   class="st4"
   clip-path="url(#SVGID_4_)"
   id="g861">
		<text
   transform="matrix(1.0116,0,0,1,1229.3638,1239.7124)"
   class="st5 st6 st7"
   id="text859"
   style="font-size:51.73379898px;font-family:Apercu-Bold;fill:#211915">Meeting</text>

	</g>
	<g
   class="st4"
   clip-path="url(#SVGID_4_)"
   id="g865">
		<text
   transform="matrix(1.0116,0,0,1,2157.5996,1178.9243)"
   class="st5 st6 st7"
   id="text863"
   style="font-size:51.73379898px;font-family:Apercu-Bold;fill:#211915">Sprint</text>

	</g>
	<g
   class="st4"
   clip-path="url(#SVGID_4_)"
   id="g869">
		<text
   transform="matrix(1.0116,0,0,1,2061.877,1241.0015)"
   class="st5 st6 st7"
   id="text867"
   style="font-size:51.73379898px;font-family:Apercu-Bold;fill:#211915">Retrospective</text>

	</g>
	<g
   class="st4"
   clip-path="url(#SVGID_4_)"
   id="g873">
		<text
   transform="matrix(1.0116,0,0,1,1432.1143,960.4463)"
   class="st5 st6 st7"
   id="text871"
   style="font-size:51.73379898px;font-family:Apercu-Bold;fill:#211915">Daily Scrum</text>

	</g>
	<g
   class="st4"
   clip-path="url(#SVGID_4_)"
   id="g877">
		<text
   transform="matrix(1.0116,0,0,1,1910.3135,960.4463)"
   class="st5 st6 st7"
   id="text875"
   style="font-size:51.73379898px;font-family:Apercu-Bold;fill:#211915">Sprint review</text>

	</g>
	<g
   class="st4"
   clip-path="url(#SVGID_4_)"
   id="g881">
		<text
   transform="matrix(1.0116,0,0,1,1971.4385,1022.5303)"
   class="st5 st6 st7"
   id="text879"
   style="font-size:51.73379898px;font-family:Apercu-Bold;fill:#211915">meeting</text>

	</g>
	<g
   class="st4"
   clip-path="url(#SVGID_4_)"
   id="g885">
		<text
   transform="matrix(1.0116,0,0,1,327.3555,1257.3511)"
   class="st5 st6 st7"
   id="text883"
   style="font-size:51.73379898px;font-family:Apercu-Bold;fill:#211915">Development</text>

	</g>
	<g
   class="st4"
   clip-path="url(#SVGID_4_)"
   id="g889">
		<text
   transform="matrix(1.0116,0,0,1,423.2319,1319.4282)"
   class="st5 st6 st7"
   id="text887"
   style="font-size:51.73379898px;font-family:Apercu-Bold;fill:#211915">Team</text>

	</g>
	<g
   class="st4"
   clip-path="url(#SVGID_4_)"
   id="g893">
		<text
   transform="matrix(1.0116,0,0,1,410.3584,1471.2646)"
   class="st5 st6 st7"
   id="text891"
   style="font-size:51.73379898px;font-family:Apercu-Bold;fill:#211915">Scrum</text>

	</g>
	<g
   class="st4"
   clip-path="url(#SVGID_4_)"
   id="g897">
		<text
   transform="matrix(1.0116,0,0,1,405.6475,1533.3477)"
   class="st5 st6 st7"
   id="text895"
   style="font-size:51.73379898px;font-family:Apercu-Bold;fill:#211915">Master</text>

	</g>
	<g
   class="st4"
   clip-path="url(#SVGID_4_)"
   id="g901">
		<text
   transform="matrix(1.0116,0,0,1,339.1836,1642.0391)"
   class="st5 st6 st7"
   id="text899"
   style="font-size:51.73379898px;font-family:Apercu-Bold;fill:#211915">Scrum Team</text>

	</g>
	<g
   class="st4"
   clip-path="url(#SVGID_4_)"
   id="g905">
		<text
   transform="matrix(1.0116,0,0,1,397.0122,1871.9961)"
   class="st5 st6 st7"
   id="text903"
   style="font-size:51.73379898px;font-family:Apercu-Bold;fill:#211915">Externs</text>

	</g>
</g>
<polygon
   class="st5"
   points="1214.3,1363.1 1149.3,1382.9 1149.3,1363.1 1149.3,1343.3 "
   id="polygon909"
   style="fill:#211915"
   transform="translate(-332.49179,-818.1)" />
<rect
   x="783.10822"
   y="542.09998"
   class="st5"
   width="30.299999"
   height="5.0999999"
   id="rect911"
   style="fill:#211915" />
<polygon
   class="st5"
   points="1534.5,1363.1 1469.4,1382.9 1469.4,1363.1 1469.4,1343.3 "
   id="polygon913"
   style="fill:#211915"
   transform="translate(-332.49179,-818.1)" />
<rect
   x="1103.3082"
   y="542.09998"
   class="st5"
   width="30.299999"
   height="5.0999999"
   id="rect915"
   style="fill:#211915" />
<rect
   x="568.20825"
   y="462.99997"
   class="st8"
   width="207.5"
   height="139.5"
   id="rect917"
   style="fill:none;stroke:#e9d43e;stroke-width:0.98979998;stroke-miterlimit:10;stroke-dasharray:2.4746, 2.4746" />
<rect
   x="1872.1083"
   y="472.30002"
   class="st9"
   width="370.29999"
   height="139.5"
   id="rect919"
   style="fill:#e9d43e" />
<line
   class="st10"
   x1="1467.2081"
   y1="293.99997"
   x2="1467.2081"
   y2="465.80002"
   id="line921"
   style="fill:none;stroke:#ffffff;stroke-width:0.49489999;stroke-miterlimit:10" />
<line
   class="st10"
   x1="1467.2081"
   y1="635"
   x2="1467.2081"
   y2="806.70007"
   id="line923"
   style="fill:none;stroke:#ffffff;stroke-width:0.49489999;stroke-miterlimit:10" />
<line
   class="st10"
   x1="1208.3082"
   y1="544.30005"
   x2="1395.4082"
   y2="544.30005"
   id="line925"
   style="fill:none;stroke:#ffffff;stroke-width:0.49489999;stroke-miterlimit:10" />
<line
   class="st10"
   x1="1548.2081"
   y1="544.30005"
   x2="1735.3082"
   y2="544.30005"
   id="line927"
   style="fill:none;stroke:#ffffff;stroke-width:0.49489999;stroke-miterlimit:10" />
<polygon
   class="st11"
   points="1538.7,1480.3 2038.5,1480.3 2092.2,1517.1 2038.5,1553.9 1538.7,1553.9 1538.7,1517.1 "
   id="polygon929"
   style="fill:#dd4f52"
   transform="translate(-332.49179,-818.1)" />
<g
   id="g993"
   transform="translate(-332.49179,-818.1)">
	<defs
   id="defs932">
		<rect
   id="SVGID_5_"
   x="291.70001"
   y="818.09998"
   width="2283.2"
   height="1243.4" />
	</defs>
	<clipPath
   id="SVGID_6_">
		<use
   xlink:href="#SVGID_5_"
   style="overflow:visible"
   id="use934"
   x="0"
   y="0"
   width="100%"
   height="100%" />
	</clipPath>
	<path
   class="st12"
   d="M 987.3,1954.2 975.2,1942 c -6.3,9.8 -15.4,17.5 -25.8,22.2 l -0.3,1.3 z"
   clip-path="url(#SVGID_6_)"
   id="path937"
   inkscape:connector-curvature="0"
   style="fill:#3b34ef" />
	<path
   class="st12"
   d="m 953,1950.3 c 5.9,-4.1 10.9,-9.5 14.6,-15.9 l -8.3,-8.3 z"
   clip-path="url(#SVGID_6_)"
   id="path939"
   inkscape:connector-curvature="0"
   style="fill:#3b34ef" />
	<path
   class="st12"
   d="m 876.6,1898 c 6.8,-26.1 33.9,-41.9 60.4,-35.2 26.4,6.8 42.4,33.5 35.6,59.7 -1.1,4.3 -2.8,8.2 -4.9,11.8 l 7.6,7.7 c 3.3,-5.1 5.8,-10.8 7.4,-16.9 8.3,-31.7 -11.1,-64.1 -43.1,-72.3 -32,-8.2 -64.8,10.9 -73.1,42.6 -6.7,25.8 4.9,52.1 26.7,65.4 l 7,-8 c -19,-10.6 -29.3,-32.9 -23.6,-54.8"
   clip-path="url(#SVGID_6_)"
   id="path941"
   inkscape:connector-curvature="0"
   style="fill:#3b34ef" />
	<path
   class="st12"
   d="m 975.2,1942 -7.6,-7.7 c -3.7,6.4 -8.7,11.8 -14.6,15.9 l -3.6,13.9 c 10.4,-4.6 19.5,-12.3 25.8,-22.1"
   clip-path="url(#SVGID_6_)"
   id="path943"
   inkscape:connector-curvature="0"
   style="fill:#3b34ef" />
	<path
   class="st12"
   d="m 1148.9,1954.2 -12.1,-12.2 c -6.3,9.8 -15.4,17.5 -25.8,22.2 l -0.3,1.3 z"
   clip-path="url(#SVGID_6_)"
   id="path945"
   inkscape:connector-curvature="0"
   style="fill:#3b34ef" />
	<path
   class="st12"
   d="m 1114.7,1950.3 c 5.9,-4.1 10.9,-9.5 14.6,-15.9 l -8.3,-8.3 z"
   clip-path="url(#SVGID_6_)"
   id="path947"
   inkscape:connector-curvature="0"
   style="fill:#3b34ef" />
	<path
   class="st12"
   d="m 1038.2,1898 c 6.8,-26.1 33.9,-41.9 60.3,-35.2 26.4,6.8 42.4,33.5 35.6,59.7 -1.1,4.3 -2.8,8.2 -4.9,11.8 l 7.6,7.7 c 3.3,-5.1 5.8,-10.8 7.4,-16.9 8.3,-31.7 -11.1,-64.1 -43.1,-72.3 -32,-8.2 -64.8,10.9 -73.1,42.6 -6.7,25.8 4.9,52.1 26.7,65.4 l 7,-8 c -18.9,-10.6 -29.2,-32.9 -23.5,-54.8"
   clip-path="url(#SVGID_6_)"
   id="path949"
   inkscape:connector-curvature="0"
   style="fill:#3b34ef" />
	<path
   class="st12"
   d="m 1136.9,1942 -7.6,-7.7 c -3.7,6.4 -8.7,11.8 -14.6,15.9 l -3.6,13.9 c 10.4,-4.6 19.4,-12.3 25.8,-22.1"
   clip-path="url(#SVGID_6_)"
   id="path951"
   inkscape:connector-curvature="0"
   style="fill:#3b34ef" />
	<path
   class="st12"
   d="m 1310.6,1954.2 -12.1,-12.2 c -6.3,9.8 -15.4,17.5 -25.8,22.2 l -0.3,1.3 z"
   clip-path="url(#SVGID_6_)"
   id="path953"
   inkscape:connector-curvature="0"
   style="fill:#3b34ef" />
	<path
   class="st12"
   d="m 1276.3,1950.3 c 5.9,-4.1 10.9,-9.5 14.6,-15.9 l -8.3,-8.3 z"
   clip-path="url(#SVGID_6_)"
   id="path955"
   inkscape:connector-curvature="0"
   style="fill:#3b34ef" />
	<path
   class="st12"
   d="m 1199.9,1898 c 6.8,-26.1 33.9,-41.9 60.4,-35.2 26.4,6.8 42.4,33.5 35.6,59.7 -1.1,4.3 -2.8,8.2 -4.9,11.8 l 7.6,7.7 c 3.3,-5.1 5.8,-10.8 7.4,-16.9 8.3,-31.7 -11.1,-64.1 -43.1,-72.3 -32,-8.2 -64.8,10.9 -73.1,42.6 -6.7,25.8 4.9,52.1 26.7,65.4 l 7,-8 c -19,-10.6 -29.3,-32.9 -23.6,-54.8"
   clip-path="url(#SVGID_6_)"
   id="path957"
   inkscape:connector-curvature="0"
   style="fill:#3b34ef" />
	<path
   class="st12"
   d="m 1298.5,1942 -7.6,-7.7 c -3.7,6.4 -8.7,11.8 -14.6,15.9 l -3.6,13.9 c 10.5,-4.6 19.5,-12.3 25.8,-22.1"
   clip-path="url(#SVGID_6_)"
   id="path959"
   inkscape:connector-curvature="0"
   style="fill:#3b34ef" />
	<path
   class="st12"
   d="m 1472.3,1954.2 -12.1,-12.2 c -6.3,9.8 -15.4,17.5 -25.8,22.2 l -0.3,1.3 z"
   clip-path="url(#SVGID_6_)"
   id="path961"
   inkscape:connector-curvature="0"
   style="fill:#3b34ef" />
	<path
   class="st12"
   d="m 1438,1950.3 c 5.9,-4.1 10.9,-9.5 14.6,-15.9 l -8.3,-8.3 z"
   clip-path="url(#SVGID_6_)"
   id="path963"
   inkscape:connector-curvature="0"
   style="fill:#3b34ef" />
	<path
   class="st12"
   d="m 1361.6,1898 c 6.8,-26.1 33.9,-41.9 60.4,-35.2 26.4,6.8 42.4,33.5 35.6,59.7 -1.1,4.3 -2.8,8.2 -4.9,11.8 l 7.6,7.7 c 3.3,-5.1 5.8,-10.8 7.4,-16.9 8.3,-31.7 -11.1,-64.1 -43.1,-72.3 -32,-8.2 -64.8,10.9 -73.1,42.6 -6.7,25.8 4.9,52.1 26.7,65.4 l 7,-8 c -19,-10.6 -29.3,-32.9 -23.6,-54.8"
   clip-path="url(#SVGID_6_)"
   id="path965"
   inkscape:connector-curvature="0"
   style="fill:#3b34ef" />
	<path
   class="st12"
   d="m 1460.2,1942 -7.6,-7.7 c -3.7,6.4 -8.7,11.8 -14.6,15.9 l -3.6,13.9 c 10.4,-4.6 19.5,-12.3 25.8,-22.1"
   clip-path="url(#SVGID_6_)"
   id="path967"
   inkscape:connector-curvature="0"
   style="fill:#3b34ef" />
	<path
   class="st12"
   d="m 1633.9,1954.2 -12.1,-12.2 c -6.3,9.8 -15.4,17.5 -25.8,22.2 l -0.3,1.3 z"
   clip-path="url(#SVGID_6_)"
   id="path969"
   inkscape:connector-curvature="0"
   style="fill:#3b34ef" />
	<path
   class="st12"
   d="m 1599.7,1950.3 c 5.9,-4.1 10.9,-9.5 14.6,-15.9 l -8.3,-8.3 z"
   clip-path="url(#SVGID_6_)"
   id="path971"
   inkscape:connector-curvature="0"
   style="fill:#3b34ef" />
	<path
   class="st12"
   d="m 1523.2,1898 c 6.8,-26.1 33.9,-41.9 60.4,-35.2 26.4,6.8 42.4,33.5 35.6,59.7 -1.1,4.3 -2.8,8.2 -4.9,11.8 l 7.6,7.7 c 3.3,-5.1 5.8,-10.8 7.4,-16.9 8.3,-31.7 -11.1,-64.1 -43.1,-72.3 -32,-8.2 -64.8,10.9 -73.1,42.6 -6.7,25.8 4.9,52.1 26.7,65.4 l 7,-8 c -19,-10.6 -29.3,-32.9 -23.6,-54.8"
   clip-path="url(#SVGID_6_)"
   id="path973"
   inkscape:connector-curvature="0"
   style="fill:#3b34ef" />
	<path
   class="st12"
   d="m 1621.9,1942 -7.6,-7.7 c -3.7,6.4 -8.7,11.8 -14.6,15.9 l -3.6,13.9 c 10.4,-4.6 19.5,-12.3 25.8,-22.1"
   clip-path="url(#SVGID_6_)"
   id="path975"
   inkscape:connector-curvature="0"
   style="fill:#3b34ef" />
	<path
   class="st12"
   d="m 1795.6,1954.2 -12.1,-12.2 c -6.3,9.8 -15.4,17.5 -25.8,22.2 l -0.3,1.3 z"
   clip-path="url(#SVGID_6_)"
   id="path977"
   inkscape:connector-curvature="0"
   style="fill:#3b34ef" />
	<path
   class="st12"
   d="m 1761.3,1950.3 c 5.9,-4.1 10.9,-9.5 14.6,-15.9 l -8.3,-8.3 z"
   clip-path="url(#SVGID_6_)"
   id="path979"
   inkscape:connector-curvature="0"
   style="fill:#3b34ef" />
	<path
   class="st12"
   d="m 1684.9,1898 c 6.8,-26.1 33.9,-41.9 60.4,-35.2 26.4,6.8 42.4,33.5 35.6,59.7 -1.1,4.3 -2.8,8.2 -4.9,11.8 l 7.6,7.7 c 3.3,-5.1 5.8,-10.8 7.4,-16.9 8.3,-31.7 -11.1,-64.1 -43.1,-72.3 -32,-8.2 -64.8,10.9 -73.1,42.6 -6.7,25.8 4.9,52.1 26.7,65.4 l 7,-8 c -19,-10.6 -29.3,-32.9 -23.6,-54.8"
   clip-path="url(#SVGID_6_)"
   id="path981"
   inkscape:connector-curvature="0"
   style="fill:#3b34ef" />
	<path
   class="st12"
   d="m 1783.5,1942 -7.6,-7.7 c -3.7,6.4 -8.7,11.8 -14.6,15.9 l -3.6,13.9 c 10.5,-4.6 19.5,-12.3 25.8,-22.1"
   clip-path="url(#SVGID_6_)"
   id="path983"
   inkscape:connector-curvature="0"
   style="fill:#3b34ef" />
	<path
   class="st12"
   d="m 1957.3,1954.2 -12.1,-12.2 c -6.3,9.8 -15.4,17.5 -25.8,22.2 l -0.3,1.3 z"
   clip-path="url(#SVGID_6_)"
   id="path985"
   inkscape:connector-curvature="0"
   style="fill:#3b34ef" />
	<path
   class="st12"
   d="m 1923,1950.3 c 5.9,-4.1 10.9,-9.5 14.6,-15.9 l -8.3,-8.3 z"
   clip-path="url(#SVGID_6_)"
   id="path987"
   inkscape:connector-curvature="0"
   style="fill:#3b34ef" />
	<path
   class="st12"
   d="m 1846.6,1898 c 6.8,-26.1 33.9,-41.9 60.3,-35.2 26.4,6.8 42.4,33.5 35.6,59.7 -1.1,4.3 -2.8,8.2 -4.9,11.8 l 7.6,7.7 c 3.3,-5.1 5.8,-10.8 7.4,-16.9 8.3,-31.7 -11.1,-64.1 -43.1,-72.3 -32,-8.2 -64.8,10.9 -73.1,42.6 -6.7,25.8 4.9,52.1 26.7,65.4 l 7,-8 c -18.9,-10.6 -29.2,-32.9 -23.5,-54.8"
   clip-path="url(#SVGID_6_)"
   id="path989"
   inkscape:connector-curvature="0"
   style="fill:#3b34ef" />
	<path
   class="st12"
   d="m 1945.2,1942 -7.6,-7.7 c -3.7,6.4 -8.7,11.8 -14.6,15.9 l -3.6,13.9 c 10.5,-4.6 19.5,-12.3 25.8,-22.1"
   clip-path="url(#SVGID_6_)"
   id="path991"
   inkscape:connector-curvature="0"
   style="fill:#3b34ef" />
</g>
<g
   id="g1005"
   transform="translate(-332.49179,-818.1)">
	<defs
   id="defs996">
		<rect
   id="SVGID_7_"
   x="291.70001"
   y="818.09998"
   width="2283.2"
   height="1243.4" />
	</defs>
	<clipPath
   id="SVGID_8_">
		<use
   xlink:href="#SVGID_7_"
   style="overflow:visible"
   id="use998"
   x="0"
   y="0"
   width="100%"
   height="100%" />
	</clipPath>
	<g
   class="st13"
   clip-path="url(#SVGID_8_)"
   id="g1003">
		<text
   transform="matrix(1.0116,0,0,1,1560.291,1531.2031)"
   class="st14 st6 st7"
   id="text1001"
   style="font-size:51.73379898px;font-family:Apercu-Bold;fill:#ffffff">Backlog Renement</text>

	</g>
</g>
<polygon
   class="st5"
   points="2162.5,1363.1 2097.4,1382.9 2097.4,1363.1 2097.4,1343.3 "
   id="polygon1007"
   style="fill:#211915"
   transform="translate(-332.49179,-818.1)" />
<rect
   x="1731.3082"
   y="542.09998"
   class="st5"
   width="30.299999"
   height="5.0999999"
   id="rect1009"
   style="fill:#211915" />
<rect
   x="440.60818"
   y="1175.7001"
   class="st11"
   width="269.89999"
   height="57"
   id="rect1011"
   style="fill:#dd4f52" />
<g
   id="g1023"
   transform="translate(-332.49179,-818.1)">
	<defs
   id="defs1014">
		<rect
   id="SVGID_9_"
   x="291.70001"
   y="818.09998"
   width="2283.2"
   height="1243.4" />
	</defs>
	<clipPath
   id="SVGID_10_">
		<use
   xlink:href="#SVGID_9_"
   style="overflow:visible"
   id="use1016"
   x="0"
   y="0"
   width="100%"
   height="100%" />
	</clipPath>
	<g
   class="st15"
   clip-path="url(#SVGID_10_)"
   id="g1021">
		<text
   transform="matrix(1.0116,0,0,1,791.8867,2038.3232)"
   class="st14 st6 st7"
   id="text1019"
   style="font-size:51.73379898px;font-family:Apercu-Bold;fill:#ffffff">Inception</text>

	</g>
</g>
<rect
   x="1502.0082"
   y="1175.7001"
   class="st9"
   width="282.60001"
   height="57"
   id="rect1025"
   style="fill:#e9d43e" />
<g
   id="g1037"
   transform="translate(-332.49179,-818.1)">
	<defs
   id="defs1028">
		<rect
   id="SVGID_11_"
   x="291.70001"
   y="818.09998"
   width="2283.2"
   height="1243.4" />
	</defs>
	<clipPath
   id="SVGID_12_">
		<use
   xlink:href="#SVGID_11_"
   style="overflow:visible"
   id="use1030"
   x="0"
   y="0"
   width="100%"
   height="100%" />
	</clipPath>
	<g
   class="st16"
   clip-path="url(#SVGID_12_)"
   id="g1035">
		<text
   transform="matrix(1.0116,0,0,1,1853.2939,2038.3232)"
   class="st14 st6 st7"
   id="text1033"
   style="font-size:51.73379898px;font-family:Apercu-Bold;fill:#ffffff">Transition</text>

	</g>
</g>
<rect
   x="705.50824"
   y="1175.7001"
   class="st17"
   width="796.5"
   height="57"
   id="rect1039"
   style="fill:#3b34ef" />
<g
   id="g1065"
   transform="translate(-332.49179,-818.1)">
	<defs
   id="defs1042">
		<rect
   id="SVGID_13_"
   x="291.70001"
   y="818.09998"
   width="2283.2"
   height="1243.4" />
	</defs>
	<clipPath
   id="SVGID_14_">
		<use
   xlink:href="#SVGID_13_"
   style="overflow:visible"
   id="use1044"
   x="0"
   y="0"
   width="100%"
   height="100%" />
	</clipPath>
	<g
   class="st18"
   clip-path="url(#SVGID_14_)"
   id="g1049">
		<text
   transform="matrix(1.0116,0,0,1,1273.6128,2038.3232)"
   class="st14 st6 st7"
   id="text1047"
   style="font-size:51.73379898px;font-family:Apercu-Bold;fill:#ffffff">Construction</text>

	</g>
	<g
   class="st18"
   clip-path="url(#SVGID_14_)"
   id="g1053">
		<text
   transform="matrix(1.0116,0,0,1,1279.4741,1707.7451)"
   class="st5 st6 st7"
   id="text1051"
   style="font-size:51.73379898px;font-family:Apercu-Bold;fill:#211915">Next release</text>

	</g>
	<g
   class="st18"
   clip-path="url(#SVGID_14_)"
   id="g1057">
		<text
   transform="matrix(1.0116,0,0,1,2265.9609,1344.6724)"
   class="st14 st6 st7"
   id="text1055"
   style="font-size:51.73379898px;font-family:Apercu-Bold;fill:#ffffff">Software </text>

	</g>
	<g
   class="st18"
   clip-path="url(#SVGID_14_)"
   id="g1061">
		<text
   transform="matrix(1.0116,0,0,1,2248.3174,1406.7563)"
   class="st14 st6 st7"
   id="text1059"
   style="font-size:51.73379898px;font-family:Apercu-Bold;fill:#ffffff">Increment</text>

	</g>
	<path
   class="st19"
   d="m 1894.5,1830.1 c 0,0 -366.9,-219.1 -970,0"
   clip-path="url(#SVGID_14_)"
   id="path1063"
   inkscape:connector-curvature="0"
   style="fill:none;stroke:#3b34ef;stroke-width:1.48469996;stroke-miterlimit:10" />
</g>
<polygon
   class="st17"
   points="971.3,1834.1 903.5,1840 956.2,1797.4 963.7,1815.7 "
   id="polygon1067"
   style="fill:#3b34ef"
   transform="translate(-332.49179,-818.1)" />
<g
   id="g1091"
   transform="translate(-332.49179,-818.1)">
	<defs
   id="defs1070">
		<rect
   id="SVGID_15_"
   x="291.70001"
   y="818.09998"
   width="2283.2"
   height="1243.4" />
	</defs>
	<clipPath
   id="SVGID_16_">
		<use
   xlink:href="#SVGID_15_"
   style="overflow:visible"
   id="use1072"
   x="0"
   y="0"
   width="100%"
   height="100%" />
	</clipPath>
	<path
   class="st20"
   d="m 484.8,1752.3 c 0,0.3 -0.1,0.5 -0.1,0.7 0,0.3 0.1,0.5 0.1,0.7 0,-0.3 0.1,-0.5 0.1,-0.7 0,-0.2 -0.1,-0.4 -0.1,-0.7"
   clip-path="url(#SVGID_16_)"
   id="path1075"
   inkscape:connector-curvature="0"
   style="fill:#adacb2" />
	<path
   class="st20"
   d="m 462.9,1774.9 c 6.8,0 12.7,-3.1 16.8,-7.8 -3.1,-3.6 -5,-8.2 -5.2,-13.2 -0.4,6 -5.4,10.8 -11.6,10.8 -6.5,0 -11.7,-5.2 -11.7,-11.6 0,-6.4 5.3,-11.6 11.7,-11.6 6.2,0 11.2,4.8 11.6,10.8 0.2,-5 2.1,-9.6 5.2,-13.2 -4,-4.8 -10,-7.8 -16.8,-7.8 -12.2,0 -22,9.8 -22,21.8 -0.1,12 9.8,21.8 22,21.8"
   clip-path="url(#SVGID_16_)"
   id="path1077"
   inkscape:connector-curvature="0"
   style="fill:#adacb2" />
	<path
   class="st20"
   d="m 479.7,1782.6 c -5,-2.6 -10.7,-4.1 -16.8,-4.1 -19.9,0 -36.2,16 -36.2,35.8 0,2.8 2.3,5.1 5.2,5.1 2.9,0 5.2,-2.3 5.2,-5.1 0,-14.1 11.6,-25.5 25.8,-25.5 2.5,0 4.9,0.5 7.2,1.1 2.7,-2.9 6,-5.4 9.6,-7.3"
   clip-path="url(#SVGID_16_)"
   id="path1079"
   inkscape:connector-curvature="0"
   style="fill:#adacb2" />
	<path
   class="st20"
   d="m 474.5,1752.3 c 0,0.3 -0.1,0.5 -0.1,0.7 0,0.3 0.1,0.5 0.1,0.7 0,-0.3 0.1,-0.5 0.1,-0.7 0,-0.2 -0.1,-0.4 -0.1,-0.7"
   clip-path="url(#SVGID_16_)"
   id="path1081"
   inkscape:connector-curvature="0"
   style="fill:#adacb2" />
	<path
   class="st20"
   d="m 496.5,1741.5 c 6.5,0 11.7,5.2 11.7,11.6 0,6.4 -5.2,11.6 -11.7,11.6 -6.2,0 -11.2,-4.8 -11.6,-10.8 -0.2,5 -2.1,9.6 -5.2,13.2 4,4.8 10,7.8 16.8,7.8 12.2,0 22,-9.8 22,-21.8 0,-12 -9.9,-21.8 -22,-21.8 -6.8,0 -12.8,3.1 -16.8,7.8 3.1,3.6 5,8.2 5.2,13.2 0.3,-6 5.4,-10.8 11.6,-10.8"
   clip-path="url(#SVGID_16_)"
   id="path1083"
   inkscape:connector-curvature="0"
   style="fill:#adacb2" />
	<path
   class="st20"
   d="m 474.6,1753.1 c 0,0.3 -0.1,0.5 -0.1,0.7 0.2,5 2.1,9.6 5.2,13.2 3.1,-3.6 5,-8.2 5.2,-13.2 0,-0.3 -0.1,-0.5 -0.1,-0.7 0,-0.3 0.1,-0.5 0.1,-0.7 -0.2,-5 -2.1,-9.6 -5.2,-13.2 -3.1,3.6 -5,8.2 -5.2,13.2 0,0.2 0.1,0.4 0.1,0.7"
   clip-path="url(#SVGID_16_)"
   id="path1085"
   inkscape:connector-curvature="0"
   style="fill:#adacb2" />
	<path
   class="st20"
   d="m 496.5,1778.5 c -6.1,0 -11.8,1.5 -16.8,4.1 3.6,1.9 6.8,4.3 9.6,7.2 2.3,-0.7 4.7,-1.1 7.2,-1.1 14.2,0 25.8,11.4 25.8,25.5 0,2.8 2.3,5.1 5.2,5.1 2.9,0 5.2,-2.3 5.2,-5.1 -0.1,-19.7 -16.3,-35.7 -36.2,-35.7"
   clip-path="url(#SVGID_16_)"
   id="path1087"
   inkscape:connector-curvature="0"
   style="fill:#adacb2" />
	<path
   class="st20"
   d="m 479.7,1782.6 c -3.6,1.9 -6.8,4.3 -9.6,7.2 3.6,1 6.8,2.8 9.6,5.2 2.8,-2.4 6,-4.1 9.6,-5.2 -2.8,-2.8 -6,-5.3 -9.6,-7.2"
   clip-path="url(#SVGID_16_)"
   id="path1089"
   inkscape:connector-curvature="0"
   style="fill:#adacb2" />
</g>
</svg>