<?xml version="1.0" encoding="utf-8" standalone="no"?>
<!-- Generator: Adobe Illustrator 22.1.0, SVG Export Plug-In . SVG Version: 6.00 Build 0)  -->
<svg version="1.1" id="Capa_1" xmlns="http://www.w3.org/2000/svg" xmlns:xlink="http://www.w3.org/1999/xlink" x="0px" y="0px"
	 viewBox="0 0 2834.6 2834.6" style="enable-background:new 0 0 2834.6 2834.6;" xml:space="preserve">
<style type="text/css">
	.st0{clip-path:url(#SVGID_2_);fill:#3B34EF;}
	.st1{clip-path:url(#SVGID_2_);fill:#E9D43E;}
	.st2{clip-path:url(#SVGID_2_);fill:#DD4F52;}
	.st3{clip-path:url(#SVGID_2_);fill:#ADACB2;}
	.st4{clip-path:url(#SVGID_4_);}
	.st5{fill:#211915;}
	.st6{font-family:'Apercu-Bold';}
	.st7{font-size:51.7338px;}
	.st8{fill:none;stroke:#E9D43E;stroke-width:0.9898;stroke-miterlimit:10;stroke-dasharray:2.4746,2.4746;}
	.st9{fill:#E9D43E;}
	.st10{fill:none;stroke:#FFFFFF;stroke-width:0.4949;stroke-miterlimit:10;}
	.st11{fill:#DD4F52;}
	.st12{clip-path:url(#SVGID_6_);fill:#3B34EF;}
	.st13{clip-path:url(#SVGID_8_);}
	.st14{fill:#FFFFFF;}
	.st15{clip-path:url(#SVGID_10_);}
	.st16{clip-path:url(#SVGID_12_);}
	.st17{fill:#3B34EF;}
	.st18{clip-path:url(#SVGID_14_);}
	.st19{clip-path:url(#SVGID_14_);fill:none;stroke:#3B34EF;stroke-width:1.4847;stroke-miterlimit:10;}
	.st20{clip-path:url(#SVGID_16_);fill:#ADACB2;}
</style>
<g>
	<defs>
		<rect id="SVGID_1_" x="291.7" y="818.1" width="2283.2" height="1243.4"/>
	</defs>
	<clipPath id="SVGID_2_">
		<use xlink:href="#SVGID_1_"  style="overflow:visible;"/>
	</clipPath>
	<path class="st0" d="M487.7,932.9c-12.2,0-22-9.8-22-21.8c0-12,9.9-21.8,22-21.8c12.2,0,22,9.8,22,21.8
		C509.7,923.1,499.8,932.9,487.7,932.9 M487.7,899.5c-6.5,0-11.7,5.2-11.7,11.6c0,6.4,5.3,11.6,11.7,11.6c6.5,0,11.7-5.2,11.7-11.6
		C499.4,904.7,494.1,899.5,487.7,899.5"/>
	<path class="st0" d="M518.7,977.4c-2.9,0-5.2-2.3-5.2-5.1c0-14.1-11.6-25.5-25.8-25.5s-25.8,11.5-25.8,25.5c0,2.8-2.3,5.1-5.2,5.1
		c-2.9,0-5.2-2.3-5.2-5.1c0-19.7,16.2-35.8,36.2-35.8s36.2,16,36.2,35.8C523.8,975.1,521.5,977.4,518.7,977.4"/>
	<path class="st0" d="M1193.3,1081.7c-12.2,0-22-9.8-22-21.8c0-12,9.9-21.8,22-21.8c12.2,0,22,9.8,22,21.8
		C1215.3,1071.9,1205.4,1081.7,1193.3,1081.7 M1193.3,1048.3c-6.5,0-11.7,5.2-11.7,11.6c0,6.4,5.3,11.6,11.7,11.6
		c6.5,0,11.7-5.2,11.7-11.6C1205,1053.5,1199.7,1048.3,1193.3,1048.3"/>
	<path class="st0" d="M1224.3,1126.2c-2.9,0-5.2-2.3-5.2-5.1c0-14.1-11.6-25.5-25.8-25.5c-14.2,0-25.8,11.5-25.8,25.5
		c0,2.8-2.3,5.1-5.2,5.1c-2.9,0-5.2-2.3-5.2-5.1c0-19.7,16.2-35.8,36.2-35.8c19.9,0,36.2,16,36.2,35.8
		C1229.5,1123.9,1227.1,1126.2,1224.3,1126.2"/>
	<path class="st1" d="M1427.4,1081.7c-12.2,0-22-9.8-22-21.8c0-12,9.9-21.8,22-21.8c12.2,0,22,9.8,22,21.8
		C1449.4,1071.9,1439.5,1081.7,1427.4,1081.7 M1427.4,1048.3c-6.5,0-11.7,5.2-11.7,11.6c0,6.4,5.2,11.6,11.7,11.6
		c6.5,0,11.7-5.2,11.7-11.6C1439.1,1053.5,1433.8,1048.3,1427.4,1048.3"/>
	<path class="st1" d="M1458.4,1126.2c-2.9,0-5.2-2.3-5.2-5.1c0-14.1-11.6-25.5-25.8-25.5c-14.2,0-25.8,11.5-25.8,25.5
		c0,2.8-2.3,5.1-5.2,5.1c-2.9,0-5.2-2.3-5.2-5.1c0-19.7,16.2-35.8,36.2-35.8c19.9,0,36.2,16,36.2,35.8
		C1463.5,1123.9,1461.2,1126.2,1458.4,1126.2"/>
	<path class="st2" d="M1274.7,1081.7c7.5,0,14.1-3.7,18.1-9.4c-2.5-3.5-4-7.8-4-12.4c0-4.6,1.5-8.9,4-12.4c-4-5.7-10.6-9.4-18.1-9.4
		c-12.2,0-22,9.8-22,21.8C1252.7,1071.9,1262.6,1081.7,1274.7,1081.7 M1274.7,1048.3c6.5,0,11.7,5.2,11.7,11.6
		c0,6.4-5.2,11.6-11.7,11.6c-6.5,0-11.7-5.2-11.7-11.6C1263,1053.5,1268.3,1048.3,1274.7,1048.3"/>
	<path class="st2" d="M1292.8,1090.2c-5.3-3.1-11.5-4.8-18.1-4.8c-19.9,0-36.2,16-36.2,35.8c0,2.8,2.3,5.1,5.2,5.1
		c2.9,0,5.2-2.3,5.2-5.1c0-14.1,11.6-25.5,25.8-25.5c3.3,0,6.4,0.7,9.2,1.8C1286.5,1094.5,1289.5,1092.1,1292.8,1090.2"/>
	<path class="st2" d="M1292.8,1072.3c4,5.7,10.6,9.4,18.1,9.4c7.5,0,14.1-3.7,18.1-9.4c-2.5-3.5-4-7.8-4-12.4c0-4.6,1.5-8.9,4-12.4
		c-4-5.7-10.6-9.4-18.1-9.4c-7.5,0-14.1,3.7-18.1,9.4c2.5,3.5,4,7.8,4,12.4C1296.8,1064.5,1295.3,1068.8,1292.8,1072.3
		 M1310.9,1048.3c6.5,0,11.7,5.2,11.7,11.6c0,6.4-5.3,11.6-11.7,11.6c-6.5,0-11.7-5.2-11.7-11.6
		C1299.2,1053.5,1304.4,1048.3,1310.9,1048.3"/>
	<path class="st2" d="M1292.8,1072.3c2.5-3.5,4-7.8,4-12.4c0-4.6-1.5-8.9-4-12.4c-2.5,3.5-4,7.8-4,12.4
		C1288.8,1064.5,1290.3,1068.8,1292.8,1072.3"/>
	<path class="st2" d="M1301.7,1097.3c2.9-1.1,6-1.8,9.2-1.8c3.3,0,6.4,0.7,9.2,1.8c2.6-2.8,5.5-5.2,8.9-7.1
		c-5.3-3.1-11.5-4.8-18.1-4.8c-6.6,0-12.8,1.8-18.1,4.8C1296.1,1092.1,1299.1,1094.5,1301.7,1097.3"/>
	<path class="st2" d="M1292.8,1090.2c-3.3,1.9-6.3,4.3-8.9,7.1c3.3,1.3,6.4,3.2,8.9,5.6c2.5-2.4,5.5-4.3,8.9-5.6
		C1299.1,1094.5,1296.1,1092.1,1292.8,1090.2"/>
	<path class="st2" d="M1329,1072.3c4,5.7,10.6,9.4,18.1,9.4c12.2,0,22-9.8,22-21.8c0-12-9.9-21.8-22-21.8c-7.5,0-14.1,3.7-18.1,9.4
		c2.5,3.5,4,7.8,4,12.4C1332.9,1064.5,1331.5,1068.8,1329,1072.3 M1347.1,1048.3c6.5,0,11.7,5.2,11.7,11.6c0,6.4-5.2,11.6-11.7,11.6
		c-6.5,0-11.7-5.2-11.7-11.6C1335.3,1053.5,1340.6,1048.3,1347.1,1048.3"/>
	<path class="st2" d="M1329,1072.3c2.5-3.5,4-7.8,4-12.4c0-4.6-1.5-8.9-4-12.4c-2.5,3.5-4,7.8-4,12.4
		C1325,1064.5,1326.5,1068.8,1329,1072.3"/>
	<path class="st2" d="M1347.1,1085.3c-6.6,0-12.8,1.8-18.1,4.8c3.3,1.9,6.3,4.3,8.9,7.1c2.9-1.1,6-1.8,9.2-1.8
		c14.2,0,25.8,11.5,25.8,25.5c0,2.8,2.3,5.1,5.2,5.1c2.9,0,5.2-2.3,5.2-5.1C1383.2,1101.4,1367,1085.3,1347.1,1085.3"/>
	<path class="st2" d="M1329,1090.2c-3.3,1.9-6.3,4.3-8.9,7.1c3.3,1.3,6.4,3.2,8.9,5.6c2.5-2.4,5.5-4.3,8.9-5.6
		C1335.3,1094.5,1332.3,1092.1,1329,1090.2"/>
	<path class="st0" d="M1894.6,861.7c-12.2,0-22-9.8-22-21.8c0-12,9.9-21.8,22-21.8c12.2,0,22,9.8,22,21.8
		C1916.6,851.9,1906.7,861.7,1894.6,861.7 M1894.6,828.3c-6.5,0-11.7,5.2-11.7,11.6c0,6.4,5.2,11.6,11.7,11.6
		c6.5,0,11.7-5.2,11.7-11.6C1906.3,833.5,1901,828.3,1894.6,828.3"/>
	<path class="st0" d="M1925.6,906.2c-2.9,0-5.2-2.3-5.2-5.1c0-14.1-11.6-25.5-25.8-25.5c-14.2,0-25.8,11.5-25.8,25.5
		c0,2.8-2.3,5.1-5.2,5.1s-5.2-2.3-5.2-5.1c0-19.7,16.2-35.8,36.2-35.8c19.9,0,36.2,16,36.2,35.8
		C1930.8,903.9,1928.4,906.2,1925.6,906.2"/>
	<path class="st3" d="M2237.4,839.1c0,0.3-0.1,0.5-0.1,0.7c0,0.3,0.1,0.5,0.1,0.7c0-0.3,0.1-0.5,0.1-0.7
		C2237.5,839.6,2237.4,839.4,2237.4,839.1"/>
	<path class="st3" d="M2215.5,861.7c6.8,0,12.7-3.1,16.8-7.8c-3.1-3.6-5-8.2-5.2-13.2c-0.4,6-5.4,10.8-11.6,10.8
		c-6.5,0-11.7-5.2-11.7-11.6c0-6.4,5.2-11.6,11.7-11.6c6.2,0,11.2,4.8,11.6,10.8c0.2-5,2.1-9.6,5.2-13.2c-4-4.8-10-7.8-16.8-7.8
		c-12.2,0-22,9.8-22,21.8C2193.4,851.9,2203.3,861.7,2215.5,861.7"/>
	<path class="st3" d="M2232.3,869.4c-5-2.6-10.7-4.1-16.8-4.1c-19.9,0-36.2,16-36.2,35.8c0,2.8,2.3,5.1,5.2,5.1
		c2.9,0,5.2-2.3,5.2-5.1c0-14.1,11.6-25.5,25.8-25.5c2.5,0,4.9,0.5,7.2,1.1C2225.4,873.8,2228.7,871.3,2232.3,869.4"/>
	<path class="st3" d="M2227.1,839.1c0,0.3-0.1,0.5-0.1,0.7c0,0.3,0.1,0.5,0.1,0.7c0-0.3,0.1-0.5,0.1-0.7
		C2227.2,839.6,2227.1,839.4,2227.1,839.1"/>
	<path class="st3" d="M2249.1,828.3c6.5,0,11.7,5.2,11.7,11.6c0,6.4-5.2,11.6-11.7,11.6c-6.2,0-11.2-4.8-11.6-10.8
		c-0.2,5-2.1,9.6-5.2,13.2c4,4.8,10,7.8,16.8,7.8c12.2,0,22-9.8,22-21.8c0-12-9.9-21.8-22-21.8c-6.8,0-12.8,3.1-16.8,7.8
		c3.1,3.6,5,8.2,5.2,13.2C2237.8,833.1,2242.9,828.3,2249.1,828.3"/>
	<path class="st3" d="M2227.2,839.9c0,0.3-0.1,0.5-0.1,0.7c0.2,5,2.1,9.6,5.2,13.2c3.1-3.6,5-8.2,5.2-13.2c0-0.3-0.1-0.5-0.1-0.7
		c0-0.3,0.1-0.5,0.1-0.7c-0.2-5-2.1-9.6-5.2-13.2c-3.1,3.6-5,8.2-5.2,13.2C2227.1,839.4,2227.2,839.6,2227.2,839.9"/>
	<path class="st3" d="M2249.1,865.3c-6.1,0-11.8,1.5-16.8,4.1c3.6,1.9,6.8,4.3,9.6,7.2c2.3-0.7,4.7-1.1,7.2-1.1
		c14.2,0,25.8,11.5,25.8,25.5c0,2.8,2.3,5.1,5.2,5.1c2.9,0,5.2-2.3,5.2-5.1C2285.2,881.4,2269,865.3,2249.1,865.3"/>
	<path class="st3" d="M2232.3,869.4c-3.6,1.9-6.8,4.3-9.6,7.2c3.6,1,6.8,2.8,9.6,5.2c2.8-2.4,6-4.1,9.6-5.2
		C2239.1,873.8,2235.9,871.3,2232.3,869.4"/>
	<path class="st1" d="M2128.7,861.7c-12.2,0-22-9.8-22-21.8c0-12,9.9-21.8,22-21.8c12.2,0,22,9.8,22,21.8
		C2150.7,851.9,2140.8,861.7,2128.7,861.7 M2128.7,828.3c-6.5,0-11.7,5.2-11.7,11.6c0,6.4,5.3,11.6,11.7,11.6
		c6.5,0,11.7-5.2,11.7-11.6C2140.4,833.5,2135.1,828.3,2128.7,828.3"/>
	<path class="st1" d="M2159.7,906.2c-2.9,0-5.2-2.3-5.2-5.1c0-14.1-11.6-25.5-25.8-25.5c-14.2,0-25.8,11.5-25.8,25.5
		c0,2.8-2.3,5.1-5.2,5.1c-2.9,0-5.2-2.3-5.2-5.1c0-19.7,16.2-35.8,36.2-35.8c19.9,0,36.2,16,36.2,35.8
		C2164.8,903.9,2162.5,906.2,2159.7,906.2"/>
	<path class="st2" d="M1976,861.7c7.5,0,14.1-3.7,18.1-9.4c-2.5-3.5-4-7.8-4-12.4c0-4.6,1.5-8.9,4-12.4c-4-5.7-10.6-9.4-18.1-9.4
		c-12.2,0-22,9.8-22,21.8C1954,851.9,1963.9,861.7,1976,861.7 M1976,828.3c6.5,0,11.7,5.2,11.7,11.6c0,6.4-5.2,11.6-11.7,11.6
		c-6.5,0-11.7-5.2-11.7-11.6C1964.3,833.5,1969.6,828.3,1976,828.3"/>
	<path class="st2" d="M1994.1,870.2c-5.3-3.1-11.5-4.8-18.1-4.8c-19.9,0-36.2,16-36.2,35.8c0,2.8,2.3,5.1,5.2,5.1
		c2.9,0,5.2-2.3,5.2-5.1c0-14.1,11.6-25.5,25.8-25.5c3.3,0,6.4,0.7,9.2,1.8C1987.8,874.5,1990.8,872.1,1994.1,870.2"/>
	<path class="st2" d="M1994.1,852.3c4,5.7,10.6,9.4,18.1,9.4c7.5,0,14.1-3.7,18.1-9.4c-2.5-3.5-4-7.8-4-12.4c0-4.6,1.5-8.9,4-12.4
		c-4-5.7-10.6-9.4-18.1-9.4c-7.5,0-14.1,3.7-18.1,9.4c2.5,3.5,4,7.8,4,12.4C1998.1,844.5,1996.6,848.8,1994.1,852.3 M2012.2,828.3
		c6.5,0,11.7,5.2,11.7,11.6c0,6.4-5.3,11.6-11.7,11.6c-6.5,0-11.7-5.2-11.7-11.6C2000.5,833.5,2005.7,828.3,2012.2,828.3"/>
	<path class="st2" d="M1994.1,852.3c2.5-3.5,4-7.8,4-12.4c0-4.6-1.5-8.9-4-12.4c-2.5,3.5-4,7.8-4,12.4
		C1990.1,844.5,1991.6,848.8,1994.1,852.3"/>
	<path class="st2" d="M2003,877.3c2.9-1.1,6-1.8,9.2-1.8c3.3,0,6.4,0.7,9.2,1.8c2.6-2.8,5.5-5.2,8.9-7.1c-5.3-3.1-11.5-4.8-18.1-4.8
		s-12.8,1.8-18.1,4.8C1997.4,872.1,2000.4,874.5,2003,877.3"/>
	<path class="st2" d="M1994.1,870.2c-3.3,1.9-6.3,4.3-8.9,7.1c3.3,1.3,6.4,3.2,8.9,5.6c2.5-2.4,5.5-4.3,8.9-5.6
		C2000.4,874.5,1997.4,872.1,1994.1,870.2"/>
	<path class="st2" d="M2030.3,852.3c4,5.7,10.6,9.4,18.1,9.4c12.2,0,22-9.8,22-21.8c0-12-9.9-21.8-22-21.8c-7.5,0-14.1,3.7-18.1,9.4
		c2.5,3.5,4,7.8,4,12.4C2034.2,844.5,2032.8,848.8,2030.3,852.3 M2048.4,828.3c6.5,0,11.7,5.2,11.7,11.6c0,6.4-5.2,11.6-11.7,11.6
		c-6.5,0-11.7-5.2-11.7-11.6C2036.7,833.5,2041.9,828.3,2048.4,828.3"/>
	<path class="st2" d="M2030.3,852.3c2.5-3.5,4-7.8,4-12.4c0-4.6-1.5-8.9-4-12.4c-2.5,3.5-4,7.8-4,12.4
		C2026.3,844.5,2027.8,848.8,2030.3,852.3"/>
	<path class="st2" d="M2048.4,865.3c-6.6,0-12.8,1.8-18.1,4.8c3.3,1.9,6.3,4.3,8.9,7.1c2.9-1.1,6-1.8,9.2-1.8
		c14.2,0,25.8,11.5,25.8,25.5c0,2.8,2.3,5.1,5.2,5.1c2.9,0,5.2-2.3,5.2-5.1C2084.5,881.4,2068.3,865.3,2048.4,865.3"/>
	<path class="st2" d="M2030.3,870.2c-3.3,1.9-6.3,4.3-8.9,7.1c3.3,1.3,6.4,3.2,8.9,5.6c2.5-2.4,5.5-4.3,8.9-5.6
		C2036.6,874.5,2033.6,872.1,2030.3,870.2"/>
	<path class="st0" d="M2093.9,1092.1c-12.2,0-22-9.8-22-21.8c0-12,9.9-21.8,22-21.8c12.2,0,22,9.8,22,21.8
		C2115.9,1082.3,2106,1092.1,2093.9,1092.1 M2093.9,1058.7c-6.5,0-11.7,5.2-11.7,11.6c0,6.4,5.2,11.6,11.7,11.6
		c6.5,0,11.7-5.2,11.7-11.6C2105.6,1063.9,2100.3,1058.7,2093.9,1058.7"/>
	<path class="st0" d="M2124.9,1136.6c-2.9,0-5.2-2.3-5.2-5.1c0-14.1-11.6-25.5-25.8-25.5c-14.2,0-25.8,11.5-25.8,25.5
		c0,2.8-2.3,5.1-5.2,5.1c-2.9,0-5.2-2.3-5.2-5.1c0-19.7,16.2-35.8,36.2-35.8c19.9,0,36.2,16,36.2,35.8
		C2130.1,1134.3,2127.7,1136.6,2124.9,1136.6"/>
	<path class="st1" d="M2338.4,1092.1c-12.2,0-22-9.8-22-21.8c0-12,9.9-21.8,22-21.8c12.2,0,22,9.8,22,21.8
		C2360.5,1082.3,2350.6,1092.1,2338.4,1092.1 M2338.4,1058.7c-6.5,0-11.7,5.2-11.7,11.6c0,6.4,5.2,11.6,11.7,11.6
		c6.5,0,11.7-5.2,11.7-11.6C2350.1,1063.9,2344.9,1058.7,2338.4,1058.7"/>
	<path class="st1" d="M2369.4,1136.6c-2.9,0-5.2-2.3-5.2-5.1c0-14.1-11.6-25.5-25.8-25.5c-14.2,0-25.8,11.5-25.8,25.5
		c0,2.8-2.3,5.1-5.2,5.1c-2.9,0-5.2-2.3-5.2-5.1c0-19.7,16.2-35.8,36.2-35.8c19.9,0,36.2,16,36.2,35.8
		C2374.6,1134.3,2372.3,1136.6,2369.4,1136.6"/>
	<path class="st2" d="M2180.5,1092.1c7.5,0,14.1-3.7,18.1-9.4c-2.5-3.5-4-7.8-4-12.4c0-4.6,1.5-8.9,4-12.4c-4-5.7-10.6-9.4-18.1-9.4
		c-12.2,0-22,9.8-22,21.8C2158.5,1082.3,2168.4,1092.1,2180.5,1092.1 M2180.5,1058.7c6.5,0,11.7,5.2,11.7,11.6
		c0,6.4-5.2,11.6-11.7,11.6c-6.5,0-11.7-5.2-11.7-11.6C2168.8,1063.9,2174.1,1058.7,2180.5,1058.7"/>
	<path class="st2" d="M2198.6,1100.5c-5.3-3.1-11.5-4.8-18.1-4.8c-19.9,0-36.2,16-36.2,35.8c0,2.8,2.3,5.1,5.2,5.1
		c2.9,0,5.2-2.3,5.2-5.1c0-14.1,11.6-25.5,25.8-25.5c3.3,0,6.4,0.7,9.2,1.8C2192.3,1104.9,2195.3,1102.4,2198.6,1100.5"/>
	<path class="st2" d="M2198.6,1082.7c4,5.7,10.6,9.4,18.1,9.4c7.5,0,14.1-3.7,18.1-9.4c-2.5-3.5-4-7.8-4-12.4c0-4.6,1.5-8.9,4-12.4
		c-4-5.7-10.6-9.4-18.1-9.4c-7.5,0-14.1,3.7-18.1,9.4c2.5,3.5,4,7.8,4,12.4C2202.6,1074.9,2201.1,1079.1,2198.6,1082.7
		 M2216.7,1058.7c6.5,0,11.7,5.2,11.7,11.6c0,6.4-5.2,11.6-11.7,11.6c-6.5,0-11.7-5.2-11.7-11.6
		C2205,1063.9,2210.3,1058.7,2216.7,1058.7"/>
	<path class="st2" d="M2198.6,1082.7c2.5-3.5,4-7.8,4-12.4c0-4.6-1.5-8.9-4-12.4c-2.5,3.5-4,7.8-4,12.4
		C2194.7,1074.9,2196.1,1079.1,2198.6,1082.7"/>
	<path class="st2" d="M2207.5,1107.7c2.9-1.1,6-1.8,9.2-1.8c3.3,0,6.4,0.7,9.2,1.8c2.6-2.8,5.5-5.2,8.9-7.1
		c-5.3-3.1-11.5-4.8-18.1-4.8c-6.6,0-12.8,1.8-18.1,4.8C2202,1102.5,2204.9,1104.9,2207.5,1107.7"/>
	<path class="st2" d="M2198.6,1100.5c-3.3,1.9-6.3,4.3-8.9,7.1c3.3,1.3,6.4,3.2,8.9,5.6c2.5-2.4,5.5-4.3,8.9-5.6
		C2204.9,1104.9,2202,1102.5,2198.6,1100.5"/>
	<path class="st2" d="M2234.8,1082.7c4,5.7,10.6,9.4,18.1,9.4c12.2,0,22-9.8,22-21.8c0-12-9.9-21.8-22-21.8
		c-7.5,0-14.1,3.7-18.1,9.4c2.5,3.5,4,7.8,4,12.4C2238.8,1074.9,2237.3,1079.1,2234.8,1082.7 M2252.9,1058.7
		c6.5,0,11.7,5.2,11.7,11.6c0,6.4-5.2,11.6-11.7,11.6c-6.5,0-11.7-5.2-11.7-11.6C2241.2,1063.9,2246.4,1058.7,2252.9,1058.7"/>
	<path class="st2" d="M2234.8,1082.7c2.5-3.5,4-7.8,4-12.4c0-4.6-1.5-8.9-4-12.4c-2.5,3.5-4,7.8-4,12.4
		C2230.8,1074.9,2232.3,1079.1,2234.8,1082.7"/>
	<path class="st2" d="M2252.9,1095.7c-6.6,0-12.8,1.8-18.1,4.8c3.3,1.9,6.3,4.3,8.9,7.1c2.9-1.1,6-1.8,9.2-1.8
		c14.2,0,25.8,11.5,25.8,25.5c0,2.8,2.3,5.1,5.2,5.1c2.9,0,5.2-2.3,5.2-5.1C2289,1111.7,2272.8,1095.7,2252.9,1095.7"/>
	<path class="st2" d="M2234.8,1100.5c-3.3,1.9-6.3,4.3-8.9,7.1c3.3,1.3,6.4,3.2,8.9,5.6c2.5-2.4,5.5-4.3,8.9-5.6
		C2241.1,1104.9,2238.1,1102.5,2234.8,1100.5"/>
	<path class="st2" d="M1505.6,863.2c7.5,0,14.1-3.7,18.1-9.4c-2.5-3.5-4-7.8-4-12.4c0-4.6,1.5-8.9,4-12.4c-4-5.7-10.6-9.4-18.1-9.4
		c-12.2,0-22,9.8-22,21.8C1483.5,853.5,1493.4,863.2,1505.6,863.2 M1505.6,829.9c6.5,0,11.7,5.2,11.7,11.6c0,6.4-5.2,11.6-11.7,11.6
		c-6.5,0-11.7-5.2-11.7-11.6C1493.9,835.1,1499.1,829.9,1505.6,829.9"/>
	<path class="st2" d="M1523.7,871.7c-5.3-3.1-11.5-4.8-18.1-4.8c-19.9,0-36.2,16-36.2,35.8c0,2.8,2.3,5.1,5.2,5.1
		c2.9,0,5.2-2.3,5.2-5.1c0-14.1,11.6-25.5,25.8-25.5c3.3,0,6.4,0.7,9.2,1.8C1517.4,876,1520.3,873.6,1523.7,871.7"/>
	<path class="st2" d="M1523.7,853.9c4,5.7,10.6,9.4,18.1,9.4c7.5,0,14.1-3.7,18.1-9.4c-2.5-3.5-4-7.8-4-12.4c0-4.6,1.5-8.9,4-12.4
		c-4-5.7-10.6-9.4-18.1-9.4c-7.5,0-14.1,3.7-18.1,9.4c2.5,3.5,4,7.8,4,12.4C1527.6,846.1,1526.2,850.3,1523.7,853.9 M1541.8,829.9
		c6.5,0,11.7,5.2,11.7,11.6c0,6.4-5.3,11.6-11.7,11.6c-6.5,0-11.7-5.2-11.7-11.6C1530.1,835.1,1535.3,829.9,1541.8,829.9"/>
	<path class="st2" d="M1523.7,853.9c2.5-3.5,4-7.8,4-12.4s-1.5-8.9-4-12.4c-2.5,3.5-4,7.8-4,12.4S1521.2,850.3,1523.7,853.9"/>
	<path class="st2" d="M1532.5,878.9c2.9-1.1,6-1.8,9.2-1.8c3.3,0,6.4,0.7,9.2,1.8c2.6-2.8,5.5-5.2,8.9-7.1
		c-5.3-3.1-11.5-4.8-18.1-4.8c-6.6,0-12.8,1.8-18.1,4.8C1527,873.6,1530,876,1532.5,878.9"/>
	<path class="st2" d="M1523.7,871.7c-3.3,1.9-6.3,4.3-8.9,7.1c3.3,1.3,6.4,3.2,8.9,5.6c2.5-2.4,5.5-4.3,8.9-5.6
		C1530,876,1527,873.6,1523.7,871.7"/>
	<path class="st2" d="M1559.8,853.9c4,5.7,10.6,9.4,18.1,9.4c12.2,0,22-9.8,22-21.8c0-12-9.9-21.8-22-21.8c-7.5,0-14.1,3.7-18.1,9.4
		c2.5,3.5,4,7.8,4,12.4C1563.8,846.1,1562.3,850.3,1559.8,853.9 M1577.9,829.9c6.5,0,11.7,5.2,11.7,11.6c0,6.4-5.2,11.6-11.7,11.6
		c-6.5,0-11.7-5.2-11.7-11.6C1566.2,835.1,1571.5,829.9,1577.9,829.9"/>
	<path class="st2" d="M1559.8,853.9c2.5-3.5,4-7.8,4-12.4s-1.5-8.9-4-12.4c-2.5,3.5-4,7.8-4,12.4S1557.4,850.3,1559.8,853.9"/>
	<path class="st2" d="M1577.9,866.9c-6.6,0-12.8,1.8-18.1,4.8c3.3,1.9,6.3,4.3,8.9,7.1c2.9-1.1,6-1.8,9.2-1.8
		c14.2,0,25.8,11.5,25.8,25.5c0,2.8,2.3,5.1,5.2,5.1c2.9,0,5.2-2.3,5.2-5.1C1614.1,882.9,1597.9,866.9,1577.9,866.9"/>
	<path class="st2" d="M1559.8,871.7c-3.3,1.9-6.3,4.3-8.9,7.1c3.3,1.3,6.4,3.2,8.9,5.6c2.5-2.4,5.5-4.3,8.9-5.6
		C1566.2,876,1563.2,873.6,1559.8,871.7"/>
	<path class="st0" d="M1662.8,863.2c-12.2,0-22-9.8-22-21.8c0-12,9.9-21.8,22-21.8c12.2,0,22,9.8,22,21.8
		C1684.9,853.5,1675,863.2,1662.8,863.2 M1662.8,829.9c-6.5,0-11.7,5.2-11.7,11.6c0,6.4,5.2,11.6,11.7,11.6
		c6.5,0,11.7-5.2,11.7-11.6C1674.5,835.1,1669.3,829.9,1662.8,829.9"/>
	<path class="st0" d="M1693.8,907.7c-2.9,0-5.2-2.3-5.2-5.1c0-14.1-11.6-25.5-25.8-25.5c-14.2,0-25.8,11.5-25.8,25.5
		c0,2.8-2.3,5.1-5.2,5.1c-2.9,0-5.2-2.3-5.2-5.1c0-19.7,16.2-35.8,36.2-35.8c19.9,0,36.2,16,36.2,35.8
		C1699,905.5,1696.7,907.7,1693.8,907.7"/>
	<path class="st0" d="M487.7,1384.7c-12.2,0-22-9.8-22-21.8c0-12,9.9-21.8,22-21.8c12.2,0,22,9.8,22,21.8
		C509.7,1375,499.8,1384.7,487.7,1384.7 M487.7,1351.4c-6.5,0-11.7,5.2-11.7,11.6c0,6.4,5.3,11.6,11.7,11.6
		c6.5,0,11.7-5.2,11.7-11.6C499.4,1356.6,494.1,1351.4,487.7,1351.4"/>
	<path class="st0" d="M518.7,1429.2c-2.9,0-5.2-2.3-5.2-5.1c0-14.1-11.6-25.5-25.8-25.5s-25.8,11.5-25.8,25.5c0,2.8-2.3,5.1-5.2,5.1
		c-2.9,0-5.2-2.3-5.2-5.1c0-19.7,16.2-35.8,36.2-35.8s36.2,16,36.2,35.8C523.8,1427,521.5,1429.2,518.7,1429.2"/>
	<path class="st0" d="M400.6,1162.7c-12.2,0-22-9.8-22-21.8c0-12,9.9-21.8,22-21.8c12.2,0,22,9.8,22,21.8
		C422.7,1152.9,412.8,1162.7,400.6,1162.7 M400.6,1129.3c-6.5,0-11.7,5.2-11.7,11.6c0,6.4,5.2,11.6,11.7,11.6
		c6.5,0,11.7-5.2,11.7-11.6C412.3,1134.5,407.1,1129.3,400.6,1129.3"/>
	<path class="st0" d="M431.6,1207.2c-2.9,0-5.2-2.3-5.2-5.1c0-14.1-11.6-25.5-25.8-25.5c-14.2,0-25.8,11.5-25.8,25.5
		c0,2.8-2.3,5.1-5.2,5.1c-2.9,0-5.2-2.3-5.2-5.1c0-19.7,16.2-35.8,36.2-35.8c19.9,0,36.2,16,36.2,35.8
		C436.8,1204.9,434.5,1207.2,431.6,1207.2"/>
	<path class="st0" d="M484.7,1162.7c-12.2,0-22-9.8-22-21.8c0-12,9.9-21.8,22-21.8c12.2,0,22,9.8,22,21.8
		C506.7,1152.9,496.8,1162.7,484.7,1162.7 M484.7,1129.3c-6.5,0-11.7,5.2-11.7,11.6c0,6.4,5.3,11.6,11.7,11.6
		c6.5,0,11.7-5.2,11.7-11.6C496.4,1134.5,491.1,1129.3,484.7,1129.3"/>
	<path class="st0" d="M515.7,1207.2c-2.9,0-5.2-2.3-5.2-5.1c0-14.1-11.6-25.5-25.8-25.5c-14.2,0-25.8,11.5-25.8,25.5
		c0,2.8-2.3,5.1-5.2,5.1c-2.9,0-5.2-2.3-5.2-5.1c0-19.7,16.2-35.8,36.2-35.8s36.2,16,36.2,35.8
		C520.8,1204.9,518.5,1207.2,515.7,1207.2"/>
	<path class="st0" d="M569.1,1162.7c-12.2,0-22-9.8-22-21.8c0-12,9.9-21.8,22-21.8c12.2,0,22,9.8,22,21.8
		C591.2,1152.9,581.3,1162.7,569.1,1162.7 M569.1,1129.3c-6.5,0-11.7,5.2-11.7,11.6c0,6.4,5.3,11.6,11.7,11.6
		c6.5,0,11.7-5.2,11.7-11.6C580.8,1134.5,575.6,1129.3,569.1,1129.3"/>
	<path class="st0" d="M600.1,1207.2c-2.9,0-5.2-2.3-5.2-5.1c0-14.1-11.6-25.5-25.8-25.5c-14.2,0-25.8,11.5-25.8,25.5
		c0,2.8-2.3,5.1-5.2,5.1c-2.9,0-5.2-2.3-5.2-5.1c0-19.7,16.2-35.8,36.2-35.8c19.9,0,36.2,16,36.2,35.8
		C605.3,1204.9,603,1207.2,600.1,1207.2"/>
	<rect x="778" y="1116.4" class="st0" width="35.2" height="34.8"/>
	<rect x="823.9" y="1116.4" class="st0" width="35.2" height="34.8"/>
	<rect x="869.9" y="1116.4" class="st0" width="35.2" height="34.8"/>
	<rect x="915.9" y="1116.4" class="st0" width="35.2" height="34.8"/>
	<rect x="961.9" y="1116.4" class="st0" width="35.2" height="34.8"/>
	<rect x="1007.8" y="1116.4" class="st0" width="35.2" height="34.8"/>
	<rect x="1053.8" y="1116.4" class="st0" width="35.2" height="34.8"/>
	<rect x="778" y="1163" class="st0" width="35.2" height="34.8"/>
	<rect x="823.9" y="1163" class="st0" width="35.2" height="34.8"/>
	<rect x="869.9" y="1163" class="st0" width="35.2" height="34.8"/>
	<rect x="915.9" y="1163" class="st0" width="35.2" height="34.8"/>
	<rect x="961.9" y="1163" class="st0" width="35.2" height="34.8"/>
	<rect x="1007.8" y="1163" class="st0" width="35.2" height="34.8"/>
	<rect x="1053.8" y="1163" class="st0" width="35.2" height="34.8"/>
	<rect x="778" y="1209.7" class="st0" width="35.2" height="34.8"/>
	<rect x="823.9" y="1209.7" class="st0" width="35.2" height="34.8"/>
	<rect x="869.9" y="1209.7" class="st0" width="35.2" height="34.8"/>
	<rect x="915.9" y="1209.7" class="st0" width="35.2" height="34.8"/>
	<rect x="961.9" y="1209.7" class="st0" width="35.2" height="34.8"/>
	<rect x="1007.8" y="1209.7" class="st0" width="35.2" height="34.8"/>
	<rect x="1053.8" y="1209.7" class="st0" width="35.2" height="34.8"/>
	<rect x="778" y="1256.3" class="st0" width="35.2" height="34.8"/>
	<rect x="823.9" y="1256.3" class="st0" width="35.2" height="34.8"/>
	<rect x="869.9" y="1256.3" class="st0" width="35.2" height="34.8"/>
	<rect x="915.9" y="1256.3" class="st0" width="35.2" height="34.8"/>
	<rect x="961.9" y="1256.3" class="st0" width="35.2" height="34.8"/>
	<rect x="1007.8" y="1256.3" class="st0" width="35.2" height="34.8"/>
	<rect x="1053.8" y="1256.3" class="st0" width="35.2" height="34.8"/>
	<rect x="778" y="1303" class="st0" width="35.2" height="34.8"/>
	<rect x="823.9" y="1303" class="st0" width="35.2" height="34.8"/>
	<rect x="869.9" y="1303" class="st0" width="35.2" height="34.8"/>
	<rect x="915.9" y="1303" class="st2" width="35.2" height="34.8"/>
	<rect x="961.9" y="1303" class="st2" width="35.2" height="34.8"/>
	<rect x="1007.8" y="1303" class="st2" width="35.2" height="34.8"/>
	<rect x="1053.8" y="1303" class="st2" width="35.2" height="34.8"/>
	<rect x="778" y="1349.6" class="st0" width="35.2" height="34.8"/>
	<rect x="823.9" y="1349.6" class="st0" width="35.2" height="34.8"/>
	<rect x="869.9" y="1349.6" class="st0" width="35.2" height="34.8"/>
	<rect x="915.9" y="1349.6" class="st2" width="35.2" height="34.8"/>
	<rect x="961.9" y="1349.6" class="st2" width="35.2" height="34.8"/>
	<rect x="1007.8" y="1349.6" class="st2" width="35.2" height="34.8"/>
	<rect x="1053.8" y="1349.6" class="st2" width="35.2" height="34.8"/>
	<rect x="778" y="1396.2" class="st0" width="35.2" height="34.8"/>
	<rect x="823.9" y="1396.2" class="st0" width="35.2" height="34.8"/>
	<rect x="869.9" y="1396.2" class="st0" width="35.2" height="34.8"/>
	<rect x="915.9" y="1396.2" class="st2" width="35.2" height="34.8"/>
	<rect x="961.9" y="1396.2" class="st2" width="35.2" height="34.8"/>
	<rect x="1007.8" y="1396.2" class="st2" width="35.2" height="34.8"/>
	<rect x="1053.8" y="1396.2" class="st2" width="35.2" height="34.8"/>
	<rect x="1238.7" y="1301.3" class="st2" width="35.2" height="34.8"/>
	<rect x="1284.6" y="1301.3" class="st2" width="35.2" height="34.8"/>
	<rect x="1330.6" y="1301.3" class="st2" width="35.2" height="34.8"/>
	<rect x="1376.6" y="1301.3" class="st2" width="35.2" height="34.8"/>
	<rect x="1238.7" y="1348" class="st2" width="35.2" height="34.8"/>
	<rect x="1284.6" y="1348" class="st2" width="35.2" height="34.8"/>
	<rect x="1330.6" y="1348" class="st2" width="35.2" height="34.8"/>
	<rect x="1376.6" y="1348" class="st2" width="35.2" height="34.8"/>
	<rect x="1238.7" y="1394.6" class="st2" width="35.2" height="34.8"/>
	<rect x="1284.6" y="1394.6" class="st2" width="35.2" height="34.8"/>
	<rect x="1330.6" y="1394.6" class="st2" width="35.2" height="34.8"/>
	<rect x="1376.6" y="1394.6" class="st2" width="35.2" height="34.8"/>
	<path class="st0" d="M1799.7,1246.1c64.9,0,117.6,52.2,117.6,116.3c0,64.1-52.8,116.3-117.6,116.3c-64.9,0-117.6-52.2-117.6-116.3
		C1682.1,1298.3,1734.8,1246.1,1799.7,1246.1 M1799.7,1142.7c-122.8,0-222.3,98.4-222.3,219.8s99.5,219.8,222.3,219.8
		c122.8,0,222.3-98.4,222.3-219.8S1922.5,1142.7,1799.7,1142.7"/>
</g>
<g>
	<defs>
		<rect id="SVGID_3_" x="291.7" y="818.1" width="2283.2" height="1243.4"/>
	</defs>
	<clipPath id="SVGID_4_">
		<use xlink:href="#SVGID_3_"  style="overflow:visible;"/>
	</clipPath>
	<g class="st4">
		<text transform="matrix(1.0116 0 0 1 390.0513 1027.2886)" class="st5 st6 st7">Product</text>
	</g>
	<g class="st4">
		<text transform="matrix(1.0116 0 0 1 407.1655 1089.3726)" class="st5 st6 st7">Owner</text>
	</g>
	<g class="st4">
		<text transform="matrix(1.0116 0 0 1 772.1069 1026.0469)" class="st5 st6 st7">Product</text>
	</g>
	<g class="st4">
		<text transform="matrix(1.0116 0 0 1 772.1069 1088.1313)" class="st5 st6 st7">Backlog</text>
	</g>
	<g class="st4">
		<text transform="matrix(1.0116 0 0 1 1143.1177 1177.6294)" class="st5 st6 st7">Sprint Planning</text>
	</g>
	<g class="st4">
		<text transform="matrix(1.0116 0 0 1 1229.3638 1239.7124)" class="st5 st6 st7">Meeting</text>
	</g>
	<g class="st4">
		<text transform="matrix(1.0116 0 0 1 2157.5996 1178.9243)" class="st5 st6 st7">Sprint</text>
	</g>
	<g class="st4">
		<text transform="matrix(1.0116 0 0 1 2061.877 1241.0015)" class="st5 st6 st7">Retrospective</text>
	</g>
	<g class="st4">
		<text transform="matrix(1.0116 0 0 1 1432.1143 960.4463)" class="st5 st6 st7">Daily Scrum</text>
	</g>
	<g class="st4">
		<text transform="matrix(1.0116 0 0 1 1910.3135 960.4463)" class="st5 st6 st7">Sprint review</text>
	</g>
	<g class="st4">
		<text transform="matrix(1.0116 0 0 1 1971.4385 1022.5303)" class="st5 st6 st7">meeting</text>
	</g>
	<g class="st4">
		<text transform="matrix(1.0116 0 0 1 327.3555 1257.3511)" class="st5 st6 st7">Development</text>
	</g>
	<g class="st4">
		<text transform="matrix(1.0116 0 0 1 423.2319 1319.4282)" class="st5 st6 st7">Team</text>
	</g>
	<g class="st4">
		<text transform="matrix(1.0116 0 0 1 410.3584 1471.2646)" class="st5 st6 st7">Scrum</text>
	</g>
	<g class="st4">
		<text transform="matrix(1.0116 0 0 1 405.6475 1533.3477)" class="st5 st6 st7">Master</text>
	</g>
	<g class="st4">
		<text transform="matrix(1.0116 0 0 1 339.1836 1642.0391)" class="st5 st6 st7">Scrum Team</text>
	</g>
	<g class="st4">
		<text transform="matrix(1.0116 0 0 1 397.0122 1871.9961)" class="st5 st6 st7">Externs</text>
	</g>
</g>
<polygon class="st5" points="1149.3,1363.1 1149.3,1343.3 1214.3,1363.1 1149.3,1382.9 "/>
<rect x="1115.6" y="1360.2" class="st5" width="30.3" height="5.1"/>
<polygon class="st5" points="1469.4,1363.1 1469.4,1343.3 1534.5,1363.1 1469.4,1382.9 "/>
<rect x="1435.8" y="1360.2" class="st5" width="30.3" height="5.1"/>
<rect x="900.7" y="1281.1" class="st8" width="207.5" height="139.5"/>
<rect x="2204.6" y="1290.4" class="st9" width="370.3" height="139.5"/>
<line class="st10" x1="1799.7" y1="1112.1" x2="1799.7" y2="1283.9"/>
<line class="st10" x1="1799.7" y1="1453.1" x2="1799.7" y2="1624.8"/>
<line class="st10" x1="1540.8" y1="1362.4" x2="1727.9" y2="1362.4"/>
<line class="st10" x1="1880.7" y1="1362.4" x2="2067.8" y2="1362.4"/>
<polygon class="st11" points="1538.7,1553.9 1538.7,1517.1 1538.7,1480.3 2038.5,1480.3 2092.2,1517.1 2038.5,1553.9 "/>
<g>
	<defs>
		<rect id="SVGID_5_" x="291.7" y="818.1" width="2283.2" height="1243.4"/>
	</defs>
	<clipPath id="SVGID_6_">
		<use xlink:href="#SVGID_5_"  style="overflow:visible;"/>
	</clipPath>
	<path class="st12" d="M987.3,1954.2l-12.1-12.2c-6.3,9.8-15.4,17.5-25.8,22.2l-0.3,1.3L987.3,1954.2z"/>
	<path class="st12" d="M953,1950.3c5.9-4.1,10.9-9.5,14.6-15.9l-8.3-8.3L953,1950.3z"/>
	<path class="st12" d="M876.6,1898c6.8-26.1,33.9-41.9,60.4-35.2c26.4,6.8,42.4,33.5,35.6,59.7c-1.1,4.3-2.8,8.2-4.9,11.8l7.6,7.7
		c3.3-5.1,5.8-10.8,7.4-16.9c8.3-31.7-11.1-64.1-43.1-72.3c-32-8.2-64.8,10.9-73.1,42.6c-6.7,25.8,4.9,52.1,26.7,65.4l7-8
		C881.2,1942.2,870.9,1919.9,876.6,1898"/>
	<path class="st12" d="M975.2,1942l-7.6-7.7c-3.7,6.4-8.7,11.8-14.6,15.9l-3.6,13.9C959.8,1959.5,968.9,1951.8,975.2,1942"/>
	<path class="st12" d="M1148.9,1954.2l-12.1-12.2c-6.3,9.8-15.4,17.5-25.8,22.2l-0.3,1.3L1148.9,1954.2z"/>
	<path class="st12" d="M1114.7,1950.3c5.9-4.1,10.9-9.5,14.6-15.9l-8.3-8.3L1114.7,1950.3z"/>
	<path class="st12" d="M1038.2,1898c6.8-26.1,33.9-41.9,60.3-35.2c26.4,6.8,42.4,33.5,35.6,59.7c-1.1,4.3-2.8,8.2-4.9,11.8l7.6,7.7
		c3.3-5.1,5.8-10.8,7.4-16.9c8.3-31.7-11.1-64.1-43.1-72.3c-32-8.2-64.8,10.9-73.1,42.6c-6.7,25.8,4.9,52.1,26.7,65.4l7-8
		C1042.8,1942.2,1032.5,1919.9,1038.2,1898"/>
	<path class="st12" d="M1136.9,1942l-7.6-7.7c-3.7,6.4-8.7,11.8-14.6,15.9l-3.6,13.9C1121.5,1959.5,1130.5,1951.8,1136.9,1942"/>
	<path class="st12" d="M1310.6,1954.2l-12.1-12.2c-6.3,9.8-15.4,17.5-25.8,22.2l-0.3,1.3L1310.6,1954.2z"/>
	<path class="st12" d="M1276.3,1950.3c5.9-4.1,10.9-9.5,14.6-15.9l-8.3-8.3L1276.3,1950.3z"/>
	<path class="st12" d="M1199.9,1898c6.8-26.1,33.9-41.9,60.4-35.2c26.4,6.8,42.4,33.5,35.6,59.7c-1.1,4.3-2.8,8.2-4.9,11.8l7.6,7.7
		c3.3-5.1,5.8-10.8,7.4-16.9c8.3-31.7-11.1-64.1-43.1-72.3c-32-8.2-64.8,10.9-73.1,42.6c-6.7,25.8,4.9,52.1,26.7,65.4l7-8
		C1204.5,1942.2,1194.2,1919.9,1199.9,1898"/>
	<path class="st12" d="M1298.5,1942l-7.6-7.7c-3.7,6.4-8.7,11.8-14.6,15.9l-3.6,13.9C1283.2,1959.5,1292.2,1951.8,1298.5,1942"/>
	<path class="st12" d="M1472.3,1954.2l-12.1-12.2c-6.3,9.8-15.4,17.5-25.8,22.2l-0.3,1.3L1472.3,1954.2z"/>
	<path class="st12" d="M1438,1950.3c5.9-4.1,10.9-9.5,14.6-15.9l-8.3-8.3L1438,1950.3z"/>
	<path class="st12" d="M1361.6,1898c6.8-26.1,33.9-41.9,60.4-35.2c26.4,6.8,42.4,33.5,35.6,59.7c-1.1,4.3-2.8,8.2-4.9,11.8l7.6,7.7
		c3.3-5.1,5.8-10.8,7.4-16.9c8.3-31.7-11.1-64.1-43.1-72.3c-32-8.2-64.8,10.9-73.1,42.6c-6.7,25.8,4.9,52.1,26.7,65.4l7-8
		C1366.2,1942.2,1355.9,1919.9,1361.6,1898"/>
	<path class="st12" d="M1460.2,1942l-7.6-7.7c-3.7,6.4-8.7,11.8-14.6,15.9l-3.6,13.9C1444.8,1959.5,1453.9,1951.8,1460.2,1942"/>
	<path class="st12" d="M1633.9,1954.2l-12.1-12.2c-6.3,9.8-15.4,17.5-25.8,22.2l-0.3,1.3L1633.9,1954.2z"/>
	<path class="st12" d="M1599.7,1950.3c5.9-4.1,10.9-9.5,14.6-15.9l-8.3-8.3L1599.7,1950.3z"/>
	<path class="st12" d="M1523.2,1898c6.8-26.1,33.9-41.9,60.4-35.2c26.4,6.8,42.4,33.5,35.6,59.7c-1.1,4.3-2.8,8.2-4.9,11.8l7.6,7.7
		c3.3-5.1,5.8-10.8,7.4-16.9c8.3-31.7-11.1-64.1-43.1-72.3c-32-8.2-64.8,10.9-73.1,42.6c-6.7,25.8,4.9,52.1,26.7,65.4l7-8
		C1527.8,1942.2,1517.5,1919.9,1523.2,1898"/>
	<path class="st12" d="M1621.9,1942l-7.6-7.7c-3.7,6.4-8.7,11.8-14.6,15.9l-3.6,13.9C1606.5,1959.5,1615.6,1951.8,1621.9,1942"/>
	<path class="st12" d="M1795.6,1954.2l-12.1-12.2c-6.3,9.8-15.4,17.5-25.8,22.2l-0.3,1.3L1795.6,1954.2z"/>
	<path class="st12" d="M1761.3,1950.3c5.9-4.1,10.9-9.5,14.6-15.9l-8.3-8.3L1761.3,1950.3z"/>
	<path class="st12" d="M1684.9,1898c6.8-26.1,33.9-41.9,60.4-35.2c26.4,6.8,42.4,33.5,35.6,59.7c-1.1,4.3-2.8,8.2-4.9,11.8l7.6,7.7
		c3.3-5.1,5.8-10.8,7.4-16.9c8.3-31.7-11.1-64.1-43.1-72.3c-32-8.2-64.8,10.9-73.1,42.6c-6.7,25.8,4.9,52.1,26.7,65.4l7-8
		C1689.5,1942.2,1679.2,1919.9,1684.9,1898"/>
	<path class="st12" d="M1783.5,1942l-7.6-7.7c-3.7,6.4-8.7,11.8-14.6,15.9l-3.6,13.9C1768.2,1959.5,1777.2,1951.8,1783.5,1942"/>
	<path class="st12" d="M1957.3,1954.2l-12.1-12.2c-6.3,9.8-15.4,17.5-25.8,22.2l-0.3,1.3L1957.3,1954.2z"/>
	<path class="st12" d="M1923,1950.3c5.9-4.1,10.9-9.5,14.6-15.9l-8.3-8.3L1923,1950.3z"/>
	<path class="st12" d="M1846.6,1898c6.8-26.1,33.9-41.9,60.3-35.2c26.4,6.8,42.4,33.5,35.6,59.7c-1.1,4.3-2.8,8.2-4.9,11.8l7.6,7.7
		c3.3-5.1,5.8-10.8,7.4-16.9c8.3-31.7-11.1-64.1-43.1-72.3c-32-8.2-64.8,10.9-73.1,42.6c-6.7,25.8,4.9,52.1,26.7,65.4l7-8
		C1851.2,1942.2,1840.9,1919.9,1846.6,1898"/>
	<path class="st12" d="M1945.2,1942l-7.6-7.7c-3.7,6.4-8.7,11.8-14.6,15.9l-3.6,13.9C1929.9,1959.5,1938.9,1951.8,1945.2,1942"/>
</g>
<g>
	<defs>
		<rect id="SVGID_7_" x="291.7" y="818.1" width="2283.2" height="1243.4"/>
	</defs>
	<clipPath id="SVGID_8_">
		<use xlink:href="#SVGID_7_"  style="overflow:visible;"/>
	</clipPath>
	<g class="st13">
		<text transform="matrix(1.0116 0 0 1 1560.291 1531.2031)" class="st14 st6 st7">Backlog Reﬁnement</text>
	</g>
</g>
<polygon class="st5" points="2097.4,1363.1 2097.4,1343.3 2162.5,1363.1 2097.4,1382.9 "/>
<rect x="2063.8" y="1360.2" class="st5" width="30.3" height="5.1"/>
<rect x="773.1" y="1993.8" class="st11" width="269.9" height="57"/>
<g>
	<defs>
		<rect id="SVGID_9_" x="291.7" y="818.1" width="2283.2" height="1243.4"/>
	</defs>
	<clipPath id="SVGID_10_">
		<use xlink:href="#SVGID_9_"  style="overflow:visible;"/>
	</clipPath>
	<g class="st15">
		<text transform="matrix(1.0116 0 0 1 791.8867 2038.3232)" class="st14 st6 st7">Inception</text>
	</g>
</g>
<rect x="1834.5" y="1993.8" class="st9" width="282.6" height="57"/>
<g>
	<defs>
		<rect id="SVGID_11_" x="291.7" y="818.1" width="2283.2" height="1243.4"/>
	</defs>
	<clipPath id="SVGID_12_">
		<use xlink:href="#SVGID_11_"  style="overflow:visible;"/>
	</clipPath>
	<g class="st16">
		<text transform="matrix(1.0116 0 0 1 1853.2939 2038.3232)" class="st14 st6 st7">Transition</text>
	</g>
</g>
<rect x="1038" y="1993.8" class="st17" width="796.5" height="57"/>
<g>
	<defs>
		<rect id="SVGID_13_" x="291.7" y="818.1" width="2283.2" height="1243.4"/>
	</defs>
	<clipPath id="SVGID_14_">
		<use xlink:href="#SVGID_13_"  style="overflow:visible;"/>
	</clipPath>
	<g class="st18">
		<text transform="matrix(1.0116 0 0 1 1273.6128 2038.3232)" class="st14 st6 st7">Construction</text>
	</g>
	<g class="st18">
		<text transform="matrix(1.0116 0 0 1 1279.4741 1707.7451)" class="st5 st6 st7">Next release</text>
	</g>
	<g class="st18">
		<text transform="matrix(1.0116 0 0 1 2265.9609 1344.6724)" class="st14 st6 st7">Software </text>
	</g>
	<g class="st18">
		<text transform="matrix(1.0116 0 0 1 2248.3174 1406.7563)" class="st14 st6 st7">Increment</text>
	</g>
	<path class="st19" d="M1894.5,1830.1c0,0-366.9-219.1-970,0"/>
</g>
<polygon class="st17" points="956.2,1797.4 963.7,1815.7 971.3,1834.1 903.5,1840 "/>
<g>
	<defs>
		<rect id="SVGID_15_" x="291.7" y="818.1" width="2283.2" height="1243.4"/>
	</defs>
	<clipPath id="SVGID_16_">
		<use xlink:href="#SVGID_15_"  style="overflow:visible;"/>
	</clipPath>
	<path class="st20" d="M484.8,1752.3c0,0.3-0.1,0.5-0.1,0.7c0,0.3,0.1,0.5,0.1,0.7c0-0.3,0.1-0.5,0.1-0.7
		C484.9,1752.8,484.8,1752.6,484.8,1752.3"/>
	<path class="st20" d="M462.9,1774.9c6.8,0,12.7-3.1,16.8-7.8c-3.1-3.6-5-8.2-5.2-13.2c-0.4,6-5.4,10.8-11.6,10.8
		c-6.5,0-11.7-5.2-11.7-11.6c0-6.4,5.3-11.6,11.7-11.6c6.2,0,11.2,4.8,11.6,10.8c0.2-5,2.1-9.6,5.2-13.2c-4-4.8-10-7.8-16.8-7.8
		c-12.2,0-22,9.8-22,21.8C440.8,1765.1,450.7,1774.9,462.9,1774.9"/>
	<path class="st20" d="M479.7,1782.6c-5-2.6-10.7-4.1-16.8-4.1c-19.9,0-36.2,16-36.2,35.8c0,2.8,2.3,5.1,5.2,5.1
		c2.9,0,5.2-2.3,5.2-5.1c0-14.1,11.6-25.5,25.8-25.5c2.5,0,4.9,0.5,7.2,1.1C472.8,1787,476.1,1784.5,479.7,1782.6"/>
	<path class="st20" d="M474.5,1752.3c0,0.3-0.1,0.5-0.1,0.7c0,0.3,0.1,0.5,0.1,0.7c0-0.3,0.1-0.5,0.1-0.7
		C474.6,1752.8,474.5,1752.6,474.5,1752.3"/>
	<path class="st20" d="M496.5,1741.5c6.5,0,11.7,5.2,11.7,11.6c0,6.4-5.2,11.6-11.7,11.6c-6.2,0-11.2-4.8-11.6-10.8
		c-0.2,5-2.1,9.6-5.2,13.2c4,4.8,10,7.8,16.8,7.8c12.2,0,22-9.8,22-21.8c0-12-9.9-21.8-22-21.8c-6.8,0-12.8,3.1-16.8,7.8
		c3.1,3.6,5,8.2,5.2,13.2C485.2,1746.3,490.3,1741.5,496.5,1741.5"/>
	<path class="st20" d="M474.6,1753.1c0,0.3-0.1,0.5-0.1,0.7c0.2,5,2.1,9.6,5.2,13.2c3.1-3.6,5-8.2,5.2-13.2c0-0.3-0.1-0.5-0.1-0.7
		c0-0.3,0.1-0.5,0.1-0.7c-0.2-5-2.1-9.6-5.2-13.2c-3.1,3.6-5,8.2-5.2,13.2C474.5,1752.6,474.6,1752.8,474.6,1753.1"/>
	<path class="st20" d="M496.5,1778.5c-6.1,0-11.8,1.5-16.8,4.1c3.6,1.9,6.8,4.3,9.6,7.2c2.3-0.7,4.7-1.1,7.2-1.1
		c14.2,0,25.8,11.4,25.8,25.5c0,2.8,2.3,5.1,5.2,5.1c2.9,0,5.2-2.3,5.2-5.1C532.6,1794.5,516.4,1778.5,496.5,1778.5"/>
	<path class="st20" d="M479.7,1782.6c-3.6,1.9-6.8,4.3-9.6,7.2c3.6,1,6.8,2.8,9.6,5.2c2.8-2.4,6-4.1,9.6-5.2
		C486.5,1787,483.3,1784.5,479.7,1782.6"/>
</g>
</svg>
